<?xml version="1.0" encoding="utf-8"?>
<!-- Generator: Adobe Illustrator 19.2.1, SVG Export Plug-In . SVG Version: 6.00 Build 0)  -->
<svg version="1.1" id="Laag_1" xmlns="http://www.w3.org/2000/svg" xmlns:xlink="http://www.w3.org/1999/xlink" x="0px" y="0px"
	 viewBox="0 0 140 75" style="enable-background:new 0 0 140 75;" xml:space="preserve">
<style type="text/css">
	.st0{fill:#F79131;}
	.st1{fill:#F6871F;}
	.st2{fill:#FAD1BF;}
	.st3{fill:#005C90;}
	.st4{fill:#FFC905;}
	.st5{fill:#EABC1D;}
	.st6{fill:#A05641;}
	.st7{fill:#974E39;}
	.st8{fill:#404041;}
	.st9{fill:#ECA452;}
	.st10{fill:#806A50;}
	.st11{fill:#79634B;}
	.st12{fill:#E5E6E7;}
	.st13{fill:#FAC6AF;}
	.st14{fill:#796247;}
	.st15{fill:#5F2936;}
	.st16{fill:#CF8F75;}
	.st17{fill:#FCCE9C;}
	.st18{fill:#9A4E23;}
	.st19{fill:#6D6E70;}
	.st20{fill:#919396;}
	.st21{fill:#BABCBE;}
	.st22{fill:#B45827;}
	.st23{fill:#A84F25;}
	.st24{fill:#C86C38;}
	.st25{fill:#FFFFFF;}
	.st26{fill:#9F587B;}
	.st27{fill:#AD718D;}
	.st28{fill:#925171;}
	.st29{fill:#C86E6B;}
	.st30{fill:#F37443;}
	.st31{fill:#FBD0B5;}
	.st32{fill:#2383B6;}
	.st33{fill:#0076AD;}
	.st34{fill:#F47A5B;}
	.st35{fill:#F26648;}
	.st36{fill:#CA8D8F;}
	.st37{fill:#C5898B;}
	.st38{fill:#9D6236;}
	.st39{fill:#AC6E3F;}
	.st40{fill:#C17238;}
	.st41{fill:#BF7E4D;}
	.st42{clip-path:url(#SVGID_2_);}
	.st43{fill:#F38020;}
	.st44{fill:#B0673B;}
	.st45{fill:#884A14;}
	.st46{fill:#71583C;}
	.st47{fill:#725D45;}
	.st48{fill:#58595B;}
	.st49{fill:#545554;}
	.st50{fill:#A3C1D0;}
	.st51{fill:#43525A;}
	.st52{fill:#404F5A;}
	.st53{fill:#98794F;}
	.st54{fill:#91724C;}
	.st55{fill:#650723;}
	.st56{fill:#B6B8BA;}
	.st57{fill:#757679;}
	.st58{fill:#999B9E;}
	.st59{fill:#C2C4C6;}
	.st60{fill:#D1D3D4;}
	.st61{fill:#E4E5E6;}
	.st62{fill:#D3D1D0;}
	.st63{fill:#F7AF90;}
	.st64{fill:#F38F1F;}
	.st65{fill:#F8A54A;}
	.st66{fill:#D7892C;}
	.st67{clip-path:url(#SVGID_4_);}
	.st68{fill:#B67893;}
	.st69{fill:#9D627F;}
	.st70{fill:#565652;}
	.st71{fill:#A29181;}
	.st72{fill:#E0F2FB;}
	.st73{fill:#91B0C1;}
	.st74{fill:#BD6867;}
	.st75{fill:none;stroke:#A38770;stroke-miterlimit:10;}
</style>
<g>
	<path id="XMLID_245_" class="st0" d="M59.7,22.3c0,0,1.2,0.3,2.9,1.9c1.7,1.5,1.9,3.1,2.4,4.2c0.5,1.2,0.8,1.7,0.8,1.7
		s-2.7-0.5-4.4-2c-1.5-1.4-2-2.5-2-3.7C59.4,23,59.7,22.3,59.7,22.3z"/>
	<path id="XMLID_244_" class="st1" d="M66,30.1c0,0-2.7-0.5-4.4-2c-1.5-1.4-2-2.5-2-3.7c0-0.3,0-0.5,0-0.8c0.5,0,1.4-0.2,1.4-0.2
		s0.7,0.3,1.5,1.5c0.8,1.2,1.7,3.4,1.7,3.4c0-0.2-1.4-2-2-2.9c-0.7-0.8-1.2-0.8-1.2-0.8s0.2,0.5,0.7,1.5c0.7,1.2,1.7,2.4,1.5,2.2
		c-0.2-0.2-1.9-1.7-2.4-2.2c-0.5-0.5-0.5-0.7-0.5-0.7C62.3,28.6,62.6,28.6,66,30.1z"/>
	<path id="XMLID_242_" class="st2" d="M77,44.2c1.9,0.3,3.1,0.2,3.7,0.2c0.7,0,0.8,1,0,1.2c-0.8,0.2-3.2,0.5-3.7,0.3
		C77.2,45.7,75.2,43.9,77,44.2z"/>
	<path id="XMLID_241_" class="st3" d="M62.1,53.9c0.5-0.2,10.9,0.2,12.7,0.3c0.2,0,0.2,0,0.2,0c1.2,0.7-2.7,3.4-4.2,5.3
		c-5.4,6.1-16.5,1.2-16.5,1.2C54.6,61,62.1,53.9,62.1,53.9z"/>
	<path id="XMLID_240_" class="st2" d="M119.2,39.5c-0.3-0.5-4.9-4.9-5.3-5.1c-0.3-0.2-3.4,2.2-3.4,2.5
		C110.7,37.1,117.3,44.7,119.2,39.5z"/>
	<path id="XMLID_235_" class="st4" d="M105.4,29.4c0.7-0.3,3.1,0,3.6,0.2c0.5,0.2,4.4,4.1,5.4,4.9s1.7,1.9,1.7,1.9l-2.7,3.2
		c0,0-3.4,0.5-3.7-0.2c-0.5-0.5-5.6-7-5.3-7.6C104.6,31.1,105.4,29.4,105.4,29.4z"/>
	<path id="XMLID_234_" class="st5" d="M115.3,37.6l-1.7,2c0,0-1.4,0.2-2.4,0.2l-2.9-8.3C108.1,31.6,113.9,36.4,115.3,37.6z"/>
	<path id="XMLID_230_" class="st6" d="M108.5,48.8c0.3,1,1.2,2,5.1,2.9c3.9,0.7,5.4,0.2,8.8,0.3c3.4,0.3,9,3.4,9,3.4
		s1.9,0.8,1.9,0.3c0.2-0.5,1.7-7.1,1.7-7.1s-10-0.5-11.6-0.7c-1.5-0.2-8.2-0.3-9-0.5c-0.8-0.2-3.9-0.2-4.8,0.2
		C109.1,47.8,108.5,48.8,108.5,48.8z"/>
	<path id="XMLID_229_" class="st7" d="M112,51.3c0.5,0.2,1,0.2,1.5,0.3c3.9,0.7,5.4,0.2,8.8,0.3c3.1,0.2,8,2.9,8.8,3.2
		c0.2-1.2,0.2-2.2,0.2-2.2s-7.5-2.2-8.5-2.2c-0.8-0.2-6.8-0.2-8-0.2s-2.9,0.2-3.1,0.2C111.9,51,111.9,51.2,112,51.3z"/>
	<path id="XMLID_228_" class="st8" d="M103.9,67.8c-0.3,0.3-1.4,2.7-1.9,3.7c-0.5,0.8-0.2,2.7-0.2,2.7s11.7,0,12.2,0c0.3,0,2,0,2-1
		s-0.3-1.7-3.2-2.7c-2.9-1-5.6-3.2-5.8-3.2S103.9,67.8,103.9,67.8z"/>
	<path id="XMLID_227_" class="st9" d="M101.7,73.3c0,0.5,0,0.8,0,0.8s11.7,0,12.2,0c0.3,0,2,0,2-1c0-0.2,0-0.3,0-0.5
		c-0.7,0.2-1.9,0.5-2.9,0.5C111,73.4,103.9,73.3,101.7,73.3z"/>
	<path id="XMLID_226_" class="st6" d="M114.9,47.6c-0.5,1.5-4.4,21.7-4.6,21.7c-0.5,0-1.4,0-1.9,0c-3.7,0.2-6.5,2-6.5,2
		c-2,1.5,6.3-12.6,7.3-23.3L114.9,47.6z"/>
	<path id="XMLID_225_" class="st7" d="M110.3,69.3c-0.5,0-1.4,0-1.9,0c-3.7,0.2-6.5,2-6.5,2c-2,1.4,5.1-10.7,7-21.1
		c0.7-0.3,1.7-0.7,1.7-0.7s-2.5,8.7-3.6,11.6c-1,2.9-2.7,7.8-2.7,7.8s3.1-0.7,3.9-0.5C109.1,68.7,110.2,69.2,110.3,69.3z"/>
	<path id="XMLID_224_" class="st10" d="M106.6,30.8c-3.2,5.4-7.8,11.4-11.4,16.8l-1.7-0.5c0,0,12.1-17,11.7-17.3
		C104.9,29.6,106.6,30.8,106.6,30.8z"/>
	<path id="XMLID_223_" class="st11" d="M94.7,45.4c1.7-2.4,4.9-7.1,7.5-10.7l0.7,0.8c-0.3,0.3-7.5,10.5-7.5,10.5L94.7,45.4z"/>
	<path id="XMLID_222_" class="st4" d="M96.7,32.5c0.8,1.4,4.9,5.1,7.5,9.5c2.5,4.4,2,9.3,2.9,10c0.8,0.7,3.4-0.5,5.6-2.2
		c2.2-1.7,5.1-2,5.1-2c-1-2.2-3.7-10-8-14.4c-1.4-1.4-1.2-2.9-2-3.7C104.7,27.2,95.4,30.1,96.7,32.5z"/>
	<path id="XMLID_221_" class="st5" d="M98.9,35.2c1.7,1.9,3.7,4.2,5.4,7c2.5,4.4,2,9.3,2.9,10c0.8,0.7,3.4-0.5,5.6-2.2
		c1.2-1,2.7-1.5,3.7-1.7l0,0c0.2,0-4.9,0.2-7.3,1.7c-2.2,1.5-2.2-6.8-3.4-8.8c-1.2-1.9-5.3-5.8-5.3-5.8
		C100.6,35.2,100.1,34.9,98.9,35.2z"/>
	<path id="XMLID_220_" class="st12" d="M101.2,29.1c-0.3,0-1,0.2-1.5,0.7c-0.5,0.7,0.8,1.2,1.5,1.4c0.7,0.2,1.4,0.7,2.9,0.7
		c1.5,0,2-0.3,2-1.2c0-0.7-0.2-1-1-1.4C104,29.1,101.2,29.1,101.2,29.1z"/>
	<path id="XMLID_219_" class="st2" d="M99.3,27.1c0.7,1.2,0.5,2.9,0.5,2.9s2.9,1.2,4.1,1.2c1.2,0,1.5-0.7,1.4-1
		c-0.2-0.3-1.4-1.7-1.5-2.7C103.5,26.5,99.3,27.1,99.3,27.1z"/>
	<path id="XMLID_218_" class="st10" d="M91,25c0,0.2,0.7,2,2.4,3.2c1.5,1.2,2.9,1.4,2.7,1.4c-0.2-0.2-1.2-1.5-1.2-1.5
		s0.2,0.2,2.2,0.7c2,0.5,2,0.2,2,0.2l-1.2-2.2l2.2,0.3L95,24L91,25z"/>
	<path id="XMLID_217_" class="st2" d="M114.2,28.1c0.5,0.3,5.8,10,5.1,11.4c-0.7,1.2-3.4,1.2-3.4,1.2c-1.5-3.1-1.7-6.5-3.7-10.7
		L114.2,28.1z"/>
	<path id="XMLID_216_" class="st2" d="M110.5,25.2c-0.3,0.2-0.8,0.2-0.8,0.8l0.2,0.3c-0.2,0.3-0.3,0.5-0.3,0.8s0.3,0.5,0.7,0.7
		c0,0-0.5,0.2-0.5,0.8c0,0.7,0.7,0.5,0.7,0.7c0,0.2-0.3,0.3,0.2,1c0.3,0.3,0.7,0.3,1,0.7c0.7,0.5,1.5,0.7,2.5,0.2
		c1.2-0.5,1.7-2.9,0.5-4.6C113.9,24.8,110.5,25.2,110.5,25.2z"/>
	<path id="XMLID_215_" class="st2" d="M95.5,7.5c5.6-1.7,10.9,0,12.9,6.5c0.2,0.5,1.2,2.5,1.4,2.9c1.4,5.9,0,9.5-4.2,11
		c-4.6,1.5-8.3,1-11.4-1.5C84.3,24.2,89.9,9.2,95.5,7.5z"/>
	<path id="XMLID_214_" class="st13" d="M109.5,24.3c-0.7,1.7-2.2,2.9-4.1,3.4c-4.6,1.5-8.3,1-11.4-1.5c-1.2-0.3-2.2-0.7-2.9-1.4
		l1-1.2c0,0,1-0.8,0.7-0.8c-0.3,0,2.7,3.1,5.1,4.1c2.4,1,5.4,1,7.5,0.5C106.9,26.9,108.8,25.2,109.5,24.3z"/>
	<path id="XMLID_213_" class="st10" d="M96.6,17.4c0.8-1.2,5.1-4.1,6.1-2.7c0.2,0.2-1.2,0.8-2.5,1.4C98.8,16.5,97.2,17.2,96.6,17.4z
		"/>
	<path id="XMLID_212_" class="st10" d="M91.6,21.3c0-0.2-0.7-0.7-0.8-1.4c1,0.7,3.1,2.9,3.1,2.9l1-1c0,0-1-1-1.7-2.5
		c-0.5-0.8-1.2-2-1.7-2.7c1.4-0.2,7.3-0.3,11-2.9c-2.7-0.3-4.2-0.8-4.9-1.4c4.8,1,10.4-0.3,12.6-5.1l-4.6,1c3.4-1.2,2.5-4.1,0.8-7.5
		c-2,6.8-21.1,4.6-19.9,13.4c-4.4,2.5,1.9,11.4,7.3,12.1c0,0-2.2-2.2-2.5-3.2C91.3,22,91.6,21.3,91.6,21.3z"/>
	<path id="XMLID_211_" class="st14" d="M94.5,21.4c-0.3-0.3-1-1.2-1.7-2.4c-0.5-0.8-1.2-2-1.7-2.7c1.4-0.2,7.3-0.3,11-2.9
		c0,0-2.2,0.5-4.9,1.2c-2.5,0.7-8.2,1-8.2,1s1,1.7,2.7,3.1C93.2,19.9,94.2,21.1,94.5,21.4z"/>
	<path id="XMLID_210_" class="st14" d="M100.6,12.4c3.9,0,7.6-1.7,9.3-5.4c0,0-3.2,2.7-5.6,3.9c-2.4,1.2-7,1.2-7,1.2
		S98.9,12.4,100.6,12.4z"/>
	<path id="XMLID_209_" class="st14" d="M105.6,8.2c3.4-1.2,2.5-4.1,0.8-7.5c0,0,0.3,3.4-0.3,4.9c-0.7,1.5-2.5,3.6-2.5,3.6L105.6,8.2
		z"/>
	
		<ellipse id="XMLID_208_" transform="matrix(0.8691 -0.4947 0.4947 0.8691 1.0955 47.3321)" class="st2" cx="90" cy="21.6" rx="2.5" ry="3.2"/>
	<path id="XMLID_207_" class="st8" d="M102.2,16.2c0.2,0.3,0.2,0.7-0.3,0.8c-0.5,0.2-0.7-0.3-0.7-0.3l-2.4,0.7
		c1.4-0.5,4.2-1.9,4.1-1.7C102.9,15.7,102.3,16,102.2,16.2z"/>
	<path id="XMLID_206_" class="st15" d="M107.9,19.6c0,0-1,1.4-3.7,2.4c-2.7,1-5.6,0.5-5.6,0.5s0.2,2,1.4,3.2
		C103.4,29.1,110,26.5,107.9,19.6z"/>
	<path id="XMLID_205_" class="st16" d="M104.6,15.5c0.2,0.3,1,2,2,2.2c-0.2,0.7-1.5,1.4-1.4,1.2l0.8-1
		C105.1,17.7,104.7,16.5,104.6,15.5z"/>
	<path id="XMLID_204_" class="st8" d="M130,54.6c0.3-1.9,0-3.4,1.7-6.3c0.8-1.5,3.7-5.1,4.8-5.6c1.2-0.7,2.4-0.2,2.4,1.5
		c0.2,2-3.2,11.7-5.6,11.9C132.2,56.4,130,54.7,130,54.6z"/>
	<path id="XMLID_203_" class="st9" d="M137.3,42.5c0.8-0.2,1.5,0.5,1.5,1.9c0.2,2-3.2,11.7-5.6,11.9c-0.3,0-0.8-0.2-1.4-0.3
		C131.7,52.2,133.9,44.4,137.3,42.5z"/>
	<path id="XMLID_202_" class="st17" d="M138.4,42.9c2.5,0.3-1.7,14.6-5.6,13.4C131.6,55.4,135.3,42.3,138.4,42.9z"/>
	<path id="XMLID_201_" class="st18" d="M90.8,44.4c-0.5,1.2-3.7,10.4-3.7,11.6c0.3,2.9,10,5.1,12.9,5.1c0,0,1.7-3.1,2.2-4.9
		c0.5-2,1.5-10.4,1.4-10.4C103.4,45.6,90.8,44.4,90.8,44.4z"/>
	<path id="XMLID_200_" class="st19" d="M93.7,51.2c0.5,0,1,0.5,0.8,1.2c0,0.7-0.7,1.2-1.2,1.2c-0.5,0-1-0.5-0.8-1.2
		C92.5,51.7,93.2,51.2,93.7,51.2z"/>
	<path id="XMLID_199_" class="st20" d="M93.3,51.3c-0.5,0-0.8,0.5-0.8,1c0,0.3,0.2,0.8,0.7,0.8s0.8-0.5,0.8-1
		C94,51.9,93.9,51.3,93.3,51.3z"/>
	<path id="XMLID_198_" class="st21" d="M93.3,51.3c-0.5,0-0.8,0.5-0.8,1c0,0.3,0,0.7,0.3,0.8H93c0.5,0,0.8-0.5,0.8-1
		c0-0.3,0-0.7-0.3-0.8C93.5,51.3,93.5,51.3,93.3,51.3z"/>
	<path id="XMLID_197_" class="st22" d="M102,46.6c-0.3,1.2-3.6,14.4-2,14.4c0.5,0,1-0.8,1.5-0.7c0.5,0.2,0.7,1,1.7,0.3
		c1-0.5,3.1-11.6,3.1-12.9c0-1.2-0.5-1.9-0.5-1.9L102,46.6z"/>
	<path id="XMLID_196_" class="st23" d="M101.5,60.3c0.5,0.2,0.7,1,1.7,0.3c1-0.5,3.1-11.6,3.1-12.9c0-1.2-0.5-1.9-0.5-1.9
		S104,49,103.9,49C103.5,48.8,101.5,60.3,101.5,60.3z"/>
	<path id="XMLID_195_" class="st24" d="M105.7,46.2c-1,0.3-3.1,1.5-4.4,3.6c-1.2,2-0.2,2.4-2.5,3.1c-2.4,0.7-10-2.4-10.2-3.2
		c-0.2-0.8,0.3-4.4,1.5-6.1c1-1.7,3.4-1.4,4.1-1.4C95,42.5,105.9,44.4,105.7,46.2z"/>
	<path id="XMLID_194_" class="st18" d="M93.7,42.3c0.3,0,0.5,0,0.7,0c0.5,0.2,8.5,1.5,10.9,3.1c-0.3,0.2-0.8,0.3-1.2,0.7
		c-1.7,1-3.2,2-3.7,3.4c-0.7,1.4-1.4,2.7-2.5,2.5c-1.2,0-7.8-2.5-8.2-3.2c-0.3-0.7,0.7-3.9,1.5-4.9C91.5,43.2,92.7,42.7,93.7,42.3z"
		/>
	<path id="XMLID_193_" class="st10" d="M108.8,29.6c-0.2,2.2,0.8,10-4.6,20.6c-0.2,0.2-1.4-0.2-1.4-0.2c6.1-14.3,3.7-20.7,3.7-20.9
		C106.8,28.8,108.8,29.3,108.8,29.6z"/>
	<path id="XMLID_192_" class="st11" d="M103.5,50.2c-0.3,0-0.5-0.2-0.5-0.2c6.1-14.3,3.7-20.7,3.7-20.9s0.3-0.2,0.8,0
		C109.5,33,105.7,45.6,103.5,50.2z"/>
	<path id="XMLID_191_" class="st25" d="M103.2,24c2.5-0.7,4.4-1.9,4.4-2c0-0.2-0.3-1-0.5-1.5c-0.7,0.5-1.5,1.2-2.9,1.7
		c-2.7,1-5.6,0.5-5.6,0.5s0.2,0.8,0.5,1.7C99.8,24.5,101.3,24.5,103.2,24z"/>
	<path id="XMLID_190_" class="st25" d="M106.9,24.3c0,0-2.4,0.8-4.2,1.2c-1,0.2-1.9,0.3-2.2,0.5c0.8,0.7,1.7,1,2.7,1
		c0.5,0,1,0,1.5-0.2c1-0.2,2-0.8,2.7-1.7C107.1,24.8,106.9,24.3,106.9,24.3z"/>
	<path id="XMLID_189_" class="st26" d="M45.6,34.5c-1.9,5.1,0,3.7,0,4.9s-0.7,3.1-0.8,6.3c0,3.2,0,5.3,1.9,6.1
		c1.7,0.8,6.6,1.5,8.2,0c1.5-1.5,2.5-7.3,3.4-9.9c0.8-2.5-0.3-9.5-0.7-10.9c-0.2-0.3,1.7-2.5,0.8-2.7C52.2,26.2,47.5,29.4,45.6,34.5
		z"/>
	<path id="XMLID_188_" class="st27" d="M45.6,34.5c-1.7,4.4-0.3,3.9-0.2,4.6c0.2,0,0.2-0.2,0.2-0.2c0.2,0,1.5-3.9,2.5-5.4
		c1-1.5,3.2-2.5,3.4-2.4l5.4-0.3c0,0,0.2-0.2,0.3-0.3c0.3-0.7,1.4-2,0.7-2.2C52.2,26.2,47.5,29.4,45.6,34.5z"/>
	<path id="XMLID_187_" class="st28" d="M54.3,52c0.2-0.2,0.3-0.2,0.3-0.3c1.5-1.5,2.5-7.3,3.4-9.9c0.8-2.5-0.3-9.5-0.7-10.9
		c0,0,0-0.2-0.2-0.2c-3.1,0-7.3,2.4-7.3,4.1c0,2.2,0.2,13.9,1.5,15.5C52.1,51,53.3,51.7,54.3,52z"/>
	<path id="XMLID_186_" class="st2" d="M70.6,53l10.7,7.8c0,0-1.5,3.2-1.5,2.9c0-0.2-11.9-7.6-11.9-7.6L70.6,53z"/>
	<path id="XMLID_185_" class="st29" d="M79.6,63.7c-0.7-0.3-1.2-0.5-1.2-0.5s-4.9-2.9-4.9-3.2s1-2,1.4-2.5c0.5-0.5,0.8-0.8,1-0.8
		s4.6,3.1,4.4,3.4C80.1,60.2,79.6,63.7,79.6,63.7z"/>
	<path id="XMLID_184_" class="st30" d="M79.1,59.2c-0.3,1.2-0.8,3.7-0.8,4.2c0,0,1.7,1.9,2.7,2.4c0.3,0.2,1.4,0.8,1.7,0.8
		c2.4,0.3,5.1-12.9,4.4-13.2c-1.7-1.2-3.7,1.4-6.1,3.9c0,0-1.5,0.8-1.9,1c-0.3,0.2-0.5,0.5-0.3,0.8C78.7,59.2,78.9,59.2,79.1,59.2z"
		/>
	<path id="XMLID_183_" class="st31" d="M81.5,66.1c0.5,0.3,1,0.5,1.2,0.7c2.4,0.3,5.1-12.9,4.4-13.2c-0.2-0.2-0.5-0.3-0.7-0.3
		c0,0-0.8,0.2-1.9,1.5c-1.2,1.5-1.9,3.6-2.5,5.8s-0.7,4.2-0.5,5.3C81.3,66,81.3,66,81.5,66.1z"/>
	<path id="XMLID_182_" class="st2" d="M59,58.8c-0.3,0.7-5.8,13.4-6.3,13.4l-3.6-0.5L55,58L59,58.8z"/>
	<path id="XMLID_181_" class="st29" d="M54.8,71.9c-1.7,0.7-6.6,2.2-6.1,0.2c0.7-2.4,2.4-5.9,3.2-7.3c0.2-0.3,0.3-0.3,0.7-0.2
		c0.3,0.2,3.1,0.8,3.4,1.2c0.2,0.3,0.2,0.3,0.2,0.5c0,0.2-1.9,4.1-1.9,4.1L54.8,71.9z"/>
	<path id="XMLID_180_" class="st30" d="M59.7,74.1c0,0-9.9,0-11.7,0c-0.2,0-0.2,0-0.3-0.2c-0.2-0.8,0.5-2,1-2.5
		c0.3-0.7,0.7-1.4,1-1.7c0.3-0.3,3.2-1,4.2-0.8s0.3,0.7,1,1.2C56,70.9,60.7,72.2,59.7,74.1z"/>
	<path id="XMLID_179_" class="st31" d="M59.7,74.1c0,0-9.9,0-11.7,0c-0.2,0-0.2,0-0.3-0.2c0-0.2,0-0.5,0-0.7l12.1-0.2
		C59.9,73.4,59.9,73.8,59.7,74.1z"/>
	<path id="XMLID_178_" class="st32" d="M55.3,46.8c0,0-4.4,9.7-7.8,12.2c8.7,12.1,22.3-5.3,27.7-4.8l-9.5-8L55.3,46.8z"/>
	<path id="XMLID_177_" class="st33" d="M47.3,59.2C56,71.2,69.6,53.9,75,54.4l-8.2-6.8c-0.8,0.2-1.4,0.2-1.4,0.2
		c0.2,0.3,0.7,0.8,1.4,1.5l-3.1-0.7l-9.9,1.9l-1.4,1.7L52.1,53c0,0,2.5,1,3.4,1s2.2-0.7,3.4-1.4c1.2-0.7,2.4-1.4,2.9-1.2
		c0.3,0.2,2.2,0.2,3.1,0.2c0.8,0,1.5-1.4,1.7-1.7c0.2-0.2,0.3-0.3,0.5-0.5c1.5,1.7,3.7,3.7,3.6,4.1c0,0.5-13.8,9.7-19.4,7.6
		C49.9,60.7,47.3,59.2,47.3,59.2z"/>
	<path id="XMLID_176_" class="st2" d="M60.6,28.8c-0.2,0.2-0.3,1,0.3,2.2c3.1,5.1,12.7,16,14.3,16.5c4.8,1.9,6.5-1.4,5.8-1.2
		c-1,0.2-2.4,0.2-3.9,0c0,0-4.2-4.8-8.2-9.5C65.1,32.1,61.7,27.4,60.6,28.8z"/>
	<path id="XMLID_175_" class="st13" d="M60.4,30.1c0,0.3,0.2,0.7,0.5,1c1.5,2.4,4.4,6.1,7.1,9.3l1.7-0.5L60.4,30.1z"/>
	<path id="XMLID_174_" class="st34" d="M60.2,28.1c-0.3,0-7.8,0.5-8.7,1c-0.8,0.3-1.9,1-1.9,1s2.9,10,3.1,17.5c0,0-2.4,2.9-1.7,3.4
		c0.7,0.5,3.2,2.5,5.3,2c2-0.5,3.4-1.4,5.1-1.7l0,0h0.2c1.7-0.2,2.9,0.8,3.9-0.3c0.3-0.3,0.7-0.8,0.8-1.2c1.2-0.7,1.7-1.5,1.4-2.7
		l-4.6-12.6L60.2,28.1z"/>
	<path id="XMLID_173_" class="st35" d="M51,50.8L51,50.8c0.8,0.7,3.2,2.7,5.4,2.2c2-0.5,3.4-1.4,5.1-1.7l0,0h0.2
		c1.7-0.2,2.9,0.8,3.9-0.3c0.3-0.3,0.7-0.8,0.8-1.2c0.7-0.5,1.2-1,1.4-1.5c-0.2,0-0.2-0.2-0.3-0.2c-0.3,0-3.1-9.9-3.4-10.9l0,0l0,0
		c-0.2-0.5-0.7-1.7-1.2-3.1l-2-4.4L60,30.1c2.9,4.1,2.7,5.6,3.7,8c0,0-0.5,0.2-0.8,1c-0.3,0.8-0.3,1.7-0.3,1.7l-2,0.8L50.9,35
		c0,0,2.5,4.4,4.8,6.1c2.2,1.9,4.1,3.2,4.1,3.2s0.2,1,0.7,2.4c0.5,1.2,3.2,1.4,3.4,1.9c0.3,0.5-1.4,0.8-2.9,0.5
		c-1.5-0.2-2.4,0.7-2.9,1.7c-0.7,1-1.5,1.5-2.9,1.5C53.8,52.2,51,50.8,51,50.8z"/>
	<path id="XMLID_172_" class="st2" d="M59.7,28.6l-1.9-0.3l-4.6,0.5c0,0-0.7,0.5-0.3,1c0.3,0.3,1,1.2,2.7,1.9
		c1.7,0.7,3.1,0.5,3.9-0.2C60.6,30.6,59.7,28.6,59.7,28.6z"/>
	<path id="XMLID_171_" class="st13" d="M59.7,28.6L58,28.2h-0.5c0,0,1.9,1,2,1.7c0.2,0.7,0,1-0.8,1.5c-0.2,0.2-0.7,0.3-1,0.3
		c0.7,0,1.2-0.3,1.7-0.7C60.6,30.6,59.7,28.6,59.7,28.6z"/>
	<path id="XMLID_170_" class="st36" d="M64,37.6c-1.4-4.1-2.2-7-6.3-9.3c-0.3-0.2,2.4-0.5,3.1-0.2c4.2,2.2,3.9,11.2,3.9,11L64,37.6z
		"/>
	<path id="XMLID_169_" class="st2" d="M53.9,25.2c0.2,1.2,0,2.9,0,3.7c0,0,1.7,0.7,2.9,0.5c1,0,1.2-0.5,1.2-0.5l-1.2-3.6L53.9,25.2z
		"/>
	<path id="XMLID_168_" class="st36" d="M53.4,28.4c-2,0.3-2.7,1.4-2.7,1.4c5.4,2.4,3.1,9.9,1,14.9c-0.7,1.2,0.7,3.4,1,2.9
		C56.8,41.7,56.3,30.3,53.4,28.4z"/>
	<path id="XMLID_167_" class="st37" d="M53.9,37.1c0,0.7-0.2,1.2-0.3,1.9c0.5,0.7,1,1.4,1.7,1.9c0.2-0.8,0.2-1.7,0.3-2.5L53.9,37.1z
		"/>
	<polygon id="XMLID_166_" class="st38" points="78.4,44 80.6,41.7 72.4,41 62.1,41.3 62.8,43.7 	"/>
	<path id="XMLID_165_" class="st39" d="M71.3,46.4l-1.9,1.4c0,0-7.8-1.5-8-1.9c-1.2-1.4-1-3.9,0.5-4.6l7.8,1.4L71.3,46.4z"/>
	<path id="XMLID_164_" class="st40" d="M80.4,46.1h0.7l-0.3,0.3c-0.2,0-1.4,0-1.4,0l0.3-0.5L80.4,46.1z"/>
	<path id="XMLID_163_" class="st41" d="M69.9,42.7c-1.4,1.2-1.4,3.6-0.5,5.1l11.6-1.2c-1.4-0.2-1.5-3.1-0.7-4.4l0,0
		c0-0.2,0.2-0.2,0.2-0.3L69.9,42.7z"/>
	<path id="XMLID_162_" class="st12" d="M80.4,46.2c-0.7-0.8-0.7-3.1-0.2-4.2l-10.2,1c-1,1-1.2,3.1-0.3,4.4L80.4,46.2z"/>
	<g id="XMLID_150_">
		<g>
			<defs>
				<path id="SVGID_1_" d="M80.4,46.2c-0.7-0.8-0.7-3.1-0.2-4.2l-10.2,1c-1,1-1.2,3.1-0.3,4.4L80.4,46.2z"/>
			</defs>
			<clipPath id="SVGID_2_">
				<use xlink:href="#SVGID_1_"  style="overflow:visible;"/>
			</clipPath>
			<g id="XMLID_152_" class="st42">
				<g id="XMLID_153_">
					<polygon id="XMLID_161_" class="st21" points="68.4,43.7 81.3,42.3 81.3,42.2 68.4,43.5 					"/>
					<polygon id="XMLID_160_" class="st21" points="68.4,44.2 81.3,42.9 81.3,42.7 68.4,44 					"/>
					<polygon id="XMLID_159_" class="st21" points="68.4,44.5 81.3,43.4 81.3,43.2 					"/>
					<polygon id="XMLID_158_" class="st21" points="68.4,45.1 81.3,43.9 81.3,43.7 					"/>
					<polygon id="XMLID_157_" class="st21" points="68.4,45.6 81.3,44.4 81.3,44.2 68.4,45.4 					"/>
					<polygon id="XMLID_156_" class="st21" points="68.4,46.1 81.3,44.9 81.3,44.7 68.4,45.9 					"/>
					<polygon id="XMLID_155_" class="st21" points="68.4,46.6 81.3,45.4 81.3,45.2 68.4,46.4 					"/>
					<polygon id="XMLID_154_" class="st21" points="68.4,47.1 81.3,45.9 81.3,45.7 68.4,46.9 					"/>
				</g>
			</g>
		</g>
	</g>
	<path id="XMLID_149_" class="st2" d="M50.2,29.4c-4.9,3.9,10,14.6,14.1,17.8c0.8,0.7,1.7,1.4,2.7,1.5c0.5,0,2,0.3,2.5,0.2
		c4.8-1,4.2-1.7,3.7-1.7c-1,0.2-2.4,0.2-3.7,0.3c-0.8,0.2-0.8-1.5-1.4-1.7c-1.2-0.3-2.2-0.7-2.7-1c-2.9-2-5.6-5.4-6.8-6.6
		C53.9,33.7,52.1,28.1,50.2,29.4z"/>
	<path id="XMLID_148_" class="st13" d="M49.7,30.1c-2.9,4.4,10.9,14.1,14.6,17.2c0.8,0.7,1.7,1.4,2.7,1.5c0.5,0,2,0.3,2.5,0.2
		c1.9-0.3,2.9-0.7,3.4-1c0.3-0.3,0.5-0.5,0.5-0.5l0,0c0,0-2.9,1-4.6,1.2c-1.7,0-3.6-1.2-4.4-1.9c-0.8-0.7-8.5-7.8-11-10.7
		C50.9,33.2,49.7,30.1,49.7,30.1L49.7,30.1z"/>
	<path id="XMLID_147_" class="st0" d="M49.7,22.5c0,0-1.4,0.5-3.6,2.4c-2.2,1.9-2.4,3.7-3.1,5.3c-0.7,1.5-1.2,2-1.2,2
		s3.4-0.7,5.4-2.4s2.5-3.2,2.7-4.8C50.2,23.5,49.7,22.5,49.7,22.5z"/>
	<path id="XMLID_146_" class="st1" d="M41.9,32.3c0,0,3.4-0.7,5.4-2.4s2.5-3.2,2.7-4.8c0-0.3,0-0.7,0-1c-0.5,0-1.7-0.2-1.7-0.2
		s-0.8,0.5-2,2c-1.2,1.5-2.2,4.2-2.2,4.2c0-0.2,1.7-2.5,2.5-3.6c0.8-1,1.4-1.2,1.4-1.2s-0.2,0.5-0.8,1.9c-0.8,1.2-2,2.9-1.9,2.7
		c0.2-0.2,2.4-2,2.9-2.7c0.5-0.5,0.7-0.8,0.7-0.8C46.3,30.5,46.1,30.3,41.9,32.3z"/>
	<path id="XMLID_145_" class="st43" d="M43.4,13.6c-0.5,1.5,1.2,9.9,5.8,12.1c1.2,0.5,3.7,0.3,3.7,0.3L43.4,13.6z"/>
	<path id="XMLID_144_" class="st2" d="M54.1,5.1c5.6-0.7,12.1,3.1,12.2,9c0,0.7,0.5,1.9,0.7,2.5c1.5,5.3-4.1,9.2-9.2,9.7
		c-5.1,0.5-8.2-0.5-10.7-3.4C41.9,19.6,44.1,6.2,54.1,5.1z"/>
	<path id="XMLID_143_" class="st13" d="M67.2,19.4c-1.5,7.8-14.8,10.5-20.6,3.2c0.3-0.5,0.8-1,0.8-1C46.8,25.2,62.4,30.8,67.2,19.4z
		"/>
	<path id="XMLID_142_" class="st43" d="M59.9,5.7c-0.2-1.5,5.3-0.8,6.1,5.9l-1-0.7L64,8l0.3,2L59.9,5.7z"/>
	<path id="XMLID_139_" class="st1" d="M66,11.1c0,0.2,0,0.3,0,0.5l-1-0.7l-0.8-2.4l1.2,2.2L66,11.1L66,11.1z M64,8.2l-0.8-1.5
		l0.5,2.9l0.5,0.5L64,8.2z"/>
	<path id="XMLID_138_" class="st0" d="M46.8,12.8c0.2-1-0.2-0.8,0.5-2.2C48,9.2,48.5,7.3,51.9,6c3.4-1.4,11.2,1,11.2,1
		S62.4,5.1,59,3.6C55.5,2.1,49.9,3.8,47.5,6c-2.5,2.2-3.9,5.3-4.1,7.5c-0.2,2.2,1.4,5.8,1.4,5.8l1-0.8l2.5,3.4l1.4-1.4
		C49.7,20.4,47.3,14.5,46.8,12.8z"/>
	<path id="XMLID_137_" class="st1" d="M48.3,21.8l1.4-1.4c0,0-2.4-6.1-2.7-7.6l-0.7-1.9c0,0,0.7,3.7,1,4.2c0.2,0.5,2,5.1,2,5.1
		L48.3,21.8z"/>
	<path id="XMLID_136_" class="st0" d="M45.6,10.9l2.5,3.7c0,0,0.7-0.5,3.2-1.5c-0.5-1.9-1-4.4-1-4.4l2,4.1c0.7-0.3,1.4-0.5,2.2-0.8
		c1.9-0.8,3.9-1.2,5.4-1.4l-0.8-3.2l2,3.2c2.2-0.2,3.6,0.2,3.6,0.2c-0.3-1.4-0.5-2.5-1.4-3.6c-1.7-2-4.8-2.7-8.7-1.9
		C49,6.2,45.6,10.9,45.6,10.9z"/>
	<path id="XMLID_135_" class="st1" d="M48.2,14.7c0,0,0.7-0.5,3.2-1.5c-0.5-1.9-1-4.4-1-4.4l2,4.1c0.7-0.3,1.4-0.5,2.2-0.8
		c1.9-0.8,3.9-1.2,5.4-1.4l-0.8-3.2l2,3.2c2-0.2,3.4,0.2,3.6,0.2l-3.2-0.7c0,0-3.2-3.9-3.2-4.1c0-0.2,0.8,4.1,0.8,4.1s-1,0-2.4,0.2
		c-1.4,0.2-4.4,1.7-4.4,1.7l-2.7-4.1l0.5,4.9L48.2,14.7z"/>
	<path id="XMLID_134_" class="st2" d="M43.4,17.7c0.7-1.2,2-1.5,3.2,0.2c1.2,1.7,1.5,3.9,0.8,4.9c-0.7,1.2-2.2,0.7-3.4-1
		C42.7,20.3,42.6,18.9,43.4,17.7z"/>
	<path id="XMLID_133_" class="st44" d="M55.3,20.4c0.7,0.7,1.7,0.8,2.9,0.8c0.8,0,1.7-0.2,2.5-0.5s1.5-0.7,1.9-1.2
		c0.3-0.3,0.5-0.7,0.5-1.2C63.8,21.8,56.3,22.6,55.3,20.4z"/>
	<path id="XMLID_132_" class="st16" d="M59.2,15.2c0.2,1.2,0.3,2.4,1.7,2.5c0,0.7-1.7,1.5-1.4,1.2l0.8-1
		C59,17.9,59.2,16.2,59.2,15.2z"/>
	<path id="XMLID_131_" class="st45" d="M9.6,21.4c0,0,0.2-0.2,0-0.3c0-0.2,0.2-0.3,0-0.3c0-0.3-0.3-0.5-0.7-0.3l0,0l0,0
		c0-0.3-0.3-0.5-0.7-0.5l0,0c-0.2-0.3-0.5-0.5-0.8-0.5l0,0c-0.2-0.3-0.5-0.5-0.8-0.5l0,0l0,0c0.2-0.2,0.2-0.3,0.2-0.5v-0.2
		c0.2-0.2,0.2-0.3,0.2-0.5s-0.2-0.3-0.3-0.3c0-0.2,0-0.2,0-0.3c0-0.2-0.2-0.3-0.5-0.3c0.2-0.2,0.2-0.3,0.2-0.5S6,15.8,5.7,15.7
		c0-0.2,0-0.2,0-0.3c0-0.2-0.2-0.3-0.3-0.5c0-0.2,0.2-0.3,0-0.5C5.4,14,5,13.8,4.7,14c-0.2,0-0.2,0.2-0.3,0.2H4.2
		C4,14,3.8,14,3.7,14c-0.3,0-0.5,0.3-0.5,0.7c0,0,0,0-0.2,0c-0.2,0-0.2,0.2-0.3,0.2c-0.2,0.2-0.3,0.3-0.2,0.7l0,0
		c-0.2,0.2-0.3,0.3-0.3,0.7c0,0.2,0.2,0.3,0.2,0.3s0,0-0.2,0c-0.3,0.2-0.5,0.5-0.5,0.7c0,0.3,0.3,0.5,0.7,0.5c0,0.2-0.2,0.3,0,0.3
		c0,0.2,0.3,0.3,0.5,0.3c0,0,0,0,0,0.2c-0.2,0.2-0.2,0.3-0.2,0.7c0,0.2,0.3,0.5,0.5,0.5c0,0.2,0,0.3,0,0.5s0.2,0.3,0.5,0.5
		c-0.2,0.2-0.2,0.3,0,0.5c0.2,0.3,0.5,0.5,0.8,0.5l0,0c0,0,0,0,0,0.2c0,0,0,0.2,0.2,0.2c0.2,0.3,0.5,0.7,0.8,0.5c0,0,0,0,0.2,0v0.2
		c0.2,0.3,0.5,0.7,0.8,0.5c0.2,0,0.3-0.2,0.3-0.3c0.2,0,0.2,0,0.3-0.2l0.2-0.2v0.2c0,0.3,0.3,0.5,0.7,0.3c0.2,0,0.2,0,0.2-0.2
		c0.2,0,0.3,0,0.5,0l0,0c0.2,0.2,0.3,0.3,0.7,0.2c0.3,0,0.5-0.3,0.5-0.5h0.2c0.3-0.2,0.5-0.5,0.5-0.8c0-0.2-0.3-0.3-0.5-0.5
		C9.9,21.4,9.6,21.4,9.6,21.4z"/>
	<path id="XMLID_130_" class="st45" d="M22.5,15.7c0,0-0.2,0-0.3-0.2c-0.2,0-0.2-0.2-0.3-0.3c-0.2-0.3,0-0.7,0.2-0.7l0,0l0,0
		c-0.2-0.3,0-0.7,0.2-0.8l0,0c-0.2-0.3,0-0.7,0.3-0.8l0,0c-0.2-0.3,0-0.7,0.3-0.8l0,0l0,0c-0.2,0-0.3-0.2-0.3-0.3v-0.2
		c-0.2,0-0.3-0.2-0.3-0.3c0-0.2,0-0.3,0-0.5c-0.2,0-0.2-0.2-0.3-0.3c-0.2-0.2-0.2-0.5,0-0.7c-0.2,0-0.3-0.2-0.5-0.3
		c-0.2-0.2-0.2-0.5,0-0.7l-0.2-0.2C21,8.2,21,8,21,7.9c-0.2,0-0.3-0.2-0.3-0.3c-0.2-0.3,0-0.7,0.2-0.8c0.2,0,0.2,0,0.3,0
		c0,0,0.2,0,0.2-0.2s0.2-0.3,0.3-0.5c0.3-0.2,0.7,0,0.8,0.2c0,0,0,0,0.2,0s0.2,0,0.3,0c0.2,0,0.5,0,0.7,0.3l0,0c0.2,0,0.5,0,0.7,0.3
		c0,0.2,0.2,0.3,0,0.3c0,0,0,0,0.2,0c0.3-0.2,0.7,0,0.8,0.2c0.2,0.3,0,0.5-0.2,0.7c0.2,0,0.3,0.2,0.3,0.3c0.2,0.2,0,0.5-0.2,0.7
		c0,0,0,0,0,0.2c0.2,0,0.3,0.2,0.5,0.3c0.2,0.2,0.2,0.5,0,0.7c0.2,0,0.2,0.2,0.3,0.3c0.2,0.2,0.2,0.5,0,0.7c0.2,0,0.3,0.2,0.3,0.3
		c0.2,0.3,0,0.7-0.2,0.8l0,0c0,0,0,0,0,0.2v0.2c0.2,0.3,0,0.8-0.3,1c0,0,0,0-0.2,0l0.2,0.2c0.2,0.3,0,0.8-0.3,1
		c-0.2,0-0.3,0.2-0.5,0c-0.2,0-0.2,0.2-0.3,0.2c0,0-0.2,0-0.3,0l0.2,0.2c0.2,0.2,0,0.5-0.2,0.7c-0.2,0-0.2,0-0.3,0
		c0.3,0.5,0.2,0.7,0,0.7l0,0c0,0.2-0.2,0.5-0.3,0.7c-0.2,0.2-0.5,0.2-0.7,0L23,17.5c-0.3,0.2-0.7,0-0.8-0.2s-0.2-0.5,0-0.7
		C22.2,16,22.5,15.7,22.5,15.7z"/>
	<path id="XMLID_129_" class="st10" d="M14,26.5C10.4,25,3.3,24.7,2,30.5c-0.3,1.2-0.7,15.1,1.2,16.5c6.5,4.6,8,0.2,10.9-1
		c1.4-0.5-0.7-5.9-0.8-8.2C13.2,35.5,14,26.5,14,26.5z"/>
	<path id="XMLID_128_" class="st46" d="M14.2,42.5c-0.3-1.7-0.8-3.6-1-4.8c0-1.4,0.2-5.1,0.5-7.8c-2.7-0.8-6.3-1.2-6.8-0.7
		C6,30.1,5.5,34,5.2,35.9c-0.2,2,0.2,16,7,11.2C12.1,46.9,13,44.9,14.2,42.5z"/>
	<path id="XMLID_127_" class="st47" d="M12.5,29.1c-1.2,0-4.9-0.7-7.5,1.2c-2.5,1.9-2,5.6-3.2,6.3c-1.4,0.7-1.7-8.3,2.5-10.7
		c4.1-2.2,10.9-0.5,12.2,0.7C17.8,27.7,12.5,29.1,12.5,29.1z"/>
	<path id="XMLID_126_" class="st2" d="M15.9,54.2c-2.7,5.8-4.6,11.4-8.2,17.2c0,0-2.5-0.5-2.4-1.2c1.7-6.6,3.7-10.7,5.8-16.8
		L15.9,54.2z"/>
	<path id="XMLID_125_" class="st13" d="M5.9,68.3c0.8-3.1,1.9-5.6,2.7-8.2l0.8,0.5c-0.3,0.8-2.5,8.2-2.5,8.2S6.5,68.7,5.9,68.3z"/>
	<path id="XMLID_124_" class="st2" d="M22.8,52.4c1.9,1.5,7.1,10,10.7,13.8l2.5-1.4c0,0-4.6-8.5-4.8-9c-0.2-0.5-5.8-6.1-6.5-5.8
		C24.2,50.5,22.8,52.4,22.8,52.4z"/>
	<path id="XMLID_123_" class="st13" d="M25.2,55.1c2.4,3.2,5.8,8.3,8.3,11l0.7-0.3c-2.4-3.6-7.1-10.5-7.3-10.7L25.2,55.1z"/>
	<path id="XMLID_122_" class="st48" d="M10.3,44.2C8.9,48.6,7.1,55.8,5.2,59c2,4.6,8.2,4.9,9.3,3.4l3.7-8.8c0,0,5.9,7,6.6,7
		s6.5-5.3,6.6-5.4l-9.2-10.2L10.3,44.2z"/>
	<path id="XMLID_121_" class="st49" d="M9.4,47.3C8.2,51.5,6.7,56.4,5.2,59c2,4.6,8.2,4.9,9.3,3.4c0,0-2-0.7-4.4-1.4
		c-2.2-0.7-3.1-1.5-3.1-1.5s1.7-1.9,2.9-5.9c1-4.1,1.4-4.8,1.4-4.8s3.2,0.8,5.6,0.5c2.5-0.3,6.6-2.2,6.6-2
		C23.7,47.6,10.6,47.6,9.4,47.3z"/>
	<path id="XMLID_120_" class="st49" d="M18.3,53.6c0,0,5.9,7,6.6,7s5.6-4.6,6.5-5.4c-1.4,0.7-3.2,1.5-4.1,2.2c-1.4,0.8-2,1.5-2,1.5
		l-6.6-7.5L18.3,53.6z"/>
	<path id="XMLID_119_" class="st2" d="M18.6,27.2c0,0,1.4-0.3,2.5,0.5c1.2,0.8,5.8,13.4,5.6,13.6c-0.2,0.2-2.4,1.5-3.2,0.8
		C22.7,41.7,18.6,27.2,18.6,27.2z"/>
	<path id="XMLID_118_" class="st2" d="M33.4,40.6c-1.5,0.7-9,2.5-9.7,2.4c-0.7-0.3-1.9-3.9-1.5-3.9c0.3,0,9.3-0.5,9.3-0.5L33.4,40.6
		z"/>
	<path id="XMLID_115_" class="st13" d="M23.2,40.1c0,0.3,0.2,0.5,0.2,0.8C23.2,40.6,23.2,40.3,23.2,40.1z M23.2,40.1h-0.7h-0.2
		c0.2,0.3,0.3,0.8,0.3,0.8s0.2,0,0.5,0c0.7,0,2,0,3.2,0c0.8,0,1.4,0,1.7-0.2c0.5-0.2,1.5-0.2,2.2-0.3c-0.3-0.5,0-0.7,0-0.7l-4.1,0.7
		l0,0L23.2,40.1z"/>
	<path id="XMLID_114_" class="st50" d="M16.7,29.1c0-0.5,0.3-1.5,0.7-1.7s0.3-0.5,1.4-0.7c4.1-0.5,5.6,6.3,7,9.3
		c0,0-2.9,1.7-3.4,1.9c-0.5,0.2-0.8,0.2-0.8,0.2L16.7,29.1z"/>
	<path id="XMLID_113_" class="st51" d="M18.6,26.7c-2.4-1.2-6.3-1.2-9.3-0.8c0,0-0.2,6.6-0.3,8.2c-0.2,1.5,1.7,6.8,0.7,9.5
		s-1.9,3.6-0.8,4.1c3.1,1.2,14.4,2.5,16-1.2c-1-2-1.9-8.5-2.7-12.2C21,30.5,18.6,26.7,18.6,26.7z"/>
	<path id="XMLID_112_" class="st52" d="M8.4,46.6c-0.2,0.5,0,0.8,0.5,1c3.1,1.2,14.4,2.5,16-1.2c-0.8-1.5-1.4-5.8-2.2-9.3
		c-0.8-2.4-1.5-4.2-1.9-4.1c-2.7,1-3.4,3.2-8.2,4.6c0,0-1.9,4.4-0.7,4.2c1.2-0.3,3.1-1.5,3.2-1.5c0.3,0,6.3,0.8,6.3,0.8
		s1.4,4.2,0.8,4.8c-0.5,0.5-6.5,1.7-8.5,1.4C11.8,46.9,8.2,46.9,8.4,46.6z"/>
	<path id="XMLID_111_" class="st53" d="M16.2,26c4.4,2.7,4.6,5.8,6.5,11.6C24.4,32.7,19.8,25,16.2,26z"/>
	<path id="XMLID_110_" class="st54" d="M17.2,25.9L17.2,25.9L17.2,25.9L17.2,25.9L17.2,25.9c-0.2,0-0.3,0-0.5,0s-0.5,0-0.5,0.2
		c4.4,2.7,4.6,5.8,6.5,11.6c0,0,0.2-1.5-0.3-3.6c-0.5-2-2.5-5.9-3.4-6.6C18.3,26.7,17.4,26,17.2,25.9z"/>
	<path id="XMLID_109_" class="st2" d="M12,26.2c-0.3,0.3-0.5,0.3,0.3,1.4c0.8,1,1.9,1.2,3.4,1.5c1.7,0.2,2.4-0.2,1.9-1.4
		c-0.5-1-1.5-1.4-1.9-1.4C15.5,26.2,12.3,25.9,12,26.2z"/>
	<path id="XMLID_108_" class="st53" d="M11.6,25.7c-1.5-0.8-2.9,0.2-2.9,0.2s1.7,0,1.9,1.9c1.2,7.5-2,11.7-4.4,16.3l0.8,1.5
		c0,0,2.5-4.1,4.4-6.6C14.4,35.2,14.2,29.8,11.6,25.7z"/>
	<path id="XMLID_107_" class="st54" d="M11.6,25.7c-0.5-0.2-1-0.3-1.4-0.3c0.5,0.7,1.9,2.9,2.2,5.1c0.3,2.7-0.3,4.6-1.2,6.8
		c-0.5,1.4-2.7,5.3-4.4,7.8l0.3,0.5c0,0,2.5-4.1,4.4-6.6C14.4,35.2,14.2,29.8,11.6,25.7z"/>
	<path id="XMLID_106_" class="st2" d="M12.5,23.1c0,1.2-0.3,2-0.5,3.1c0,0.5,1.7,0.8,2.4,0.8c1,0,1.4-0.5,1.4-0.5l-0.3-3.2
		L12.5,23.1z"/>
	<path id="XMLID_105_" class="st2" d="M13.8,4.8c5.6-0.7,10.9,3.4,11.9,9c1,5.6-3.6,11.2-8.2,11.7c-4.6,0.5-7.8-0.8-10-3.4
		c-1,0.3-2.2-1-3.1-2.4C3.7,18.4,4,16.5,5,16c0.2,0,0.2-0.2,0.3-0.2C4.7,10.4,8.2,5.5,13.8,4.8z"/>
	<path id="XMLID_104_" class="st13" d="M8.4,16.5l5.6,0.8c0,0,0,1.7,0.5,2.7c0.5,0.8,1.2,1.2,2.4,1.2c1.2,0.2,2.4-2.2,2.5-2.9
		c0.2-0.7,0.3-1.4,0.3-1.4s0.5-0.3,1-0.3c0.5-0.2,0.5,0,0.5,0s-0.2,0.8,0,1.7c0.2,0.8,0.8,1.7,1,1.7s0.8-3.1,0.8-3.4
		c0.2-0.3-0.8-0.7-2-0.8c-1.2-0.2-4.1,0.8-4.2,0.8s-8.7-0.8-8.7-0.8L8.4,16.5z"/>
	<path id="XMLID_103_" class="st13" d="M22.5,23c-1.4,1.5-3.2,2.4-5.1,2.5c-4.6,0.5-7.8-0.8-10-3.4l1-1C13.2,25.5,17.6,26.4,22.5,23
		z"/>
	<path id="XMLID_102_" class="st45" d="M6,15c0.2,0,0.3,0.3,0.7,0.3c0,0,0,0.2,0,0.3c0,0.3,0.3,0.7,0.8,0.7h0.2c0.2,0.2,0,0.5,0,0.7
		c0,0.2,0,0.3,0.2,0.3c0,0.2-0.2,0.2-0.2,0.3c0,0.2,0.2,0.3,0.3,0.5c-0.2,0.2-0.2,0.2-0.2,0.3c0,0.2,0,0.2,0.2,0.3
		c0,0.2-0.2,0.2-0.2,0.3c0,0.3,0.3,0.7,0.5,0.7h0.2c0,0.2,0.2,0.2,0.3,0.2s0.3-0.2,0.3-0.3v-0.2c0.2,0,0.5-0.2,0.5-0.5
		c0-0.2,0-0.2-0.2-0.3c0,0,0,0,0-0.2c0-0.2,0-0.3-0.2-0.3c0,0,0.2-0.2,0.2-0.3c0-0.2-0.2-0.5-0.5-0.5c0-0.2,0.2-0.2,0.2-0.3
		c0-0.2,0-0.3-0.2-0.5c0.2,0,0.2-0.2,0.2-0.3c0-0.2,0-0.2-0.2-0.3c0-0.2,0.2-0.2,0.2-0.3v-0.2l0,0c0.3,0,0.7-0.3,0.7-0.8
		c0-0.2,0-0.5-0.2-0.5c0.2-0.2,0.3-0.5,0.5-0.8l0,0c0.8,0,1.5-0.7,1.5-1.5v-0.2c0.8,0,1.4-0.7,1.4-1.5l0,0l0,0
		c0.2,0.3,0.5,0.5,1,0.5c0.2,0,0.3,0,0.5,0c0.2,0.3,0.5,0.5,1,0.5c0.3,0,0.7-0.2,1-0.5c0.2,0.2,0.5,0.3,0.8,0.3c0.5,0,1-0.3,1.2-0.7
		c0.3,0.3,0.7,0.7,1.2,0.7c0.5,0,1-0.3,1.2-0.7c0.2,0,0.3,0.2,0.5,0.2c0.5,0,0.8-0.2,1.2-0.3c0.2,0.2,0.5,0.3,1,0.3
		c0.7,0,1.4-0.7,1.4-1.4c0-0.3,0-0.5-0.2-0.7c0-0.2,0-0.3,0-0.3c0.3-0.2,0.7-0.7,0.7-1.2c0-0.7-0.5-1.2-1.2-1.4c0-0.2,0-0.2,0-0.3
		c0-0.3-0.2-0.5-0.2-0.7c-0.7-0.8-1.2-1.2-1.9-1.2h-0.2c-0.2-0.5-0.7-1-1.4-1c-0.3,0-0.7,0.2-0.8,0.3c0,0,0-0.2,0-0.3
		c0-0.8-0.7-1.4-1.4-1.4c-0.7,0-1.2,0.5-1.4,1c-0.2-0.2-0.5-0.3-0.8-0.3c-0.5,0-1,0.3-1.2,0.8c0,0-0.2,0-0.3,0
		c-0.3-0.3-0.7-0.7-1.2-0.7c-0.7,0-1.2,0.3-1.4,0.8c-0.3-0.2-0.7-0.3-1-0.3c-0.5,0-1,0.3-1.4,0.7c-0.3-0.3-0.7-0.5-1-0.5
		c-0.8,0-1.4,0.7-1.4,1.4l0,0c-0.2,0-0.2,0-0.3,0c-0.2,0-0.3,0-0.3,0.2c-0.8,0-1.7,0.7-1.7,1.7c0,0.2,0,0.2,0,0.3
		C5.2,5.8,5,5.7,4.8,5.7C4,5.7,3.1,6.3,3.1,7.3c0,0.3,0.2,0.7,0.3,1c0,0.3,0,0.5,0.2,0.7C3.8,9.2,4,9.4,4,9.6
		c-0.2,0-0.3-0.2-0.5-0.2c-0.7,0-1.2,0.5-1.2,1.2c0,0.2,0,0.5,0.2,0.7c-0.3,0.3-0.3,0.8-0.2,1l0,0c-0.5,0.2-0.8,0.7-0.8,1.4
		c0,0.7,0.3,1.2,0.8,1.4c0,0.2,0,0.3,0,0.5c0,0.8,0.7,1.4,1.4,1.4c0.5,0,1-0.3,1.4-0.8C5.7,16,6,15,6,15z"/>
	<path id="XMLID_101_" class="st55" d="M20.6,22.3c0,0.3-0.2,0.7-0.5,1c-0.8,0.8-2.2,1.2-3.4,0.7c-0.8-0.3-1.2-0.8-1-1.5h0.2
		C17.4,22.6,19.1,22.6,20.6,22.3z"/>
	<polygon id="XMLID_100_" class="st56" points="38.1,38.4 38.3,37.4 29.5,36.6 15.7,38.6 21.8,39.6 26.4,39.8 	"/>
	<polygon id="XMLID_99_" class="st48" points="32,37.2 31.7,36.7 21.5,38.3 27.9,38.8 	"/>
	<polygon id="XMLID_98_" class="st57" points="38.1,38.4 26.4,40.3 26.6,39.5 38.3,37.4 	"/>
	<path id="XMLID_97_" class="st8" d="M27.4,39.8l0.2-1l10-1.5c0.3,0,0.2,0.8,0,0.8L27.4,39.8z"/>
	<path id="XMLID_96_" class="st48" d="M27.6,38.8c0,0,0.3,0.2,0.2,0.5c0,0.5-0.2,0.5-0.3,0.5L27.6,38.8z"/>
	<polygon id="XMLID_95_" class="st56" points="25.9,38.9 30,27.7 42.2,25.7 42.9,26.2 38.8,37.4 26.6,39.3 	"/>
	<polygon id="XMLID_94_" class="st58" points="15.7,39.5 15.7,38.6 26.6,39.5 26.4,40.3 	"/>
	<path id="XMLID_93_" class="st59" d="M25.9,38.9l0.7,0.5l4.1-11.2L30,27.7L25.9,38.9z"/>
	<path id="XMLID_92_" class="st60" d="M26.6,39.5l12.2-2l4.1-11.2l-12.2,2L26.6,39.5z"/>
	<path id="XMLID_91_" class="st61" d="M30.2,38.8c3.9-1.9,7.1-6.3,8.2-11.6c0-0.2,0-0.2,0-0.3l-7.6,1.4l-4.1,11.2
		C26.6,39.5,28.1,39.1,30.2,38.8z"/>
	<path id="XMLID_90_" class="st13" d="M20.8,34.5c0.5-0.2,1.4-0.3,2-0.8c0.7-0.7,1-1.4,0.7-1.5c-0.3-0.2-2.4,1-2.5,1
		C21,33.3,20.8,34.5,20.8,34.5z"/>
	<path id="XMLID_89_" class="st2" d="M9.4,26c-2.9-0.5-3.1,2-3.1,2C6.4,32.3,5.7,40,7.6,41c2.4,1.4,7.5-2.5,10.9-4.4
		c3.1,0.7,4.6,0.7,5.4-1.4c0,0,1.7,1.9,2.2,1.5c0.5-0.3-1.5-2.9-2.4-3.4c-2.2-1-4.1-0.7-5.8,1c-2.2,0.8-8,3.1-8,2.7
		c0.3-2.4,1.2-6.5,0.8-8.8C10.8,27.1,10.3,26.2,9.4,26z"/>
	<path id="XMLID_88_" class="st13" d="M6.4,36.2c0.2,2.4,0.3,4.2,1.2,4.8c2.4,1.4,7.5-2.5,10.9-4.4c3.1,0.7,4.6,0.7,5.4-1.4
		c0,0,1.7,1.9,2.2,1.5l0,0c-0.2,0-0.3-0.2-0.5-0.2c-0.3-0.3-2.2-1.9-2.2-1.9l0.2,0.3c0,0-1.5,1.7-2.7,1.7c-1.2,0-2.9-0.5-2.9-0.5
		s-8.8,4.4-9.9,3.9c-1-0.5-0.8-3.7-1-3.9C7.1,36.1,6.7,36.1,6.4,36.2z"/>
	<path id="XMLID_87_" class="st13" d="M34.7,40.6c0.3-0.2,1.2-0.3,1.7-0.8s0.8-1.2,0.5-1.4c-0.3-0.2-2.2,0.8-2.2,1
		C34.7,39.5,34.7,40.6,34.7,40.6z"/>
	<path id="XMLID_86_" class="st2" d="M36.4,39.5c0-0.2,0.2-0.3,0.2-0.5l0,0c0,0,0.5-1.2,0.7-1.5c0-0.3,0.3-0.8,0-1
		c-0.3-0.2-0.7,0.3-0.7,0.5c-0.2,0.2-0.3,0.8-0.3,0.8s0.2-0.7,0.2-1c0-0.3-0.3-0.5-0.5-0.3c-0.2,0-0.3,0.2-0.3,0.5
		c0,0.2-0.2,0.7-0.3,1l0,0c0-0.3,0-0.8,0-1c-0.2-0.3,0-0.3-0.3-0.3c-0.3,0.2-0.3,0.5-0.5,0.8c0,0.2-0.2,0.5-0.2,0.7l0,0
		c0-0.3,0.2-0.8,0.2-1c-0.2-0.2-0.3-0.2-0.5,0.2c-0.2,0.2-0.5,1.2-0.5,1.4c-0.3,0.2-1.2,1.2-1.2,1.2L30.8,40c0,0-0.3,0.3,0.2,0.8
		c0.5,0.5,1,0.8,2.9,0.8C35.1,41.2,36.4,39.5,36.4,39.5z"/>
	<path id="XMLID_85_" class="st16" d="M90.3,19.7c-1-0.8-3.1,1.2-1.5,2.9c0.8,0.8,1.4,1.2,2,0.8c0.7-0.5,0.8-1,0.3-1.4
		c-0.5-0.2-1-0.2-1-0.7c0-0.3,0-0.3,0.3-0.5C91,20.6,90.3,19.7,90.3,19.7z"/>
	<path id="XMLID_84_" class="st8" d="M106.4,14.7c0.2,0.3,0.3,0.7,0.8,0.3c0.5-0.3,0.2-0.8,0.2-0.8l1-0.8c-1.4,0.5-3.1,1.4-3.1,1.4
		C105.6,15,106.1,14.8,106.4,14.7z"/>
	<path id="XMLID_83_" class="st10" d="M108.6,12.1c-0.8-0.3-3.7,0.3-3.7,1.9c0,0.2,0.8-0.2,1.7-0.7C107.3,13,108.3,12.3,108.6,12.1z
		"/>
	<path id="XMLID_82_" class="st2" d="M97.1,34.7c-0.8,1-2.9,1.4-5.4,5.3s-2.5,6.3-2.5,6.3s1.5,0.8,1.9,1.7c0.3,0.7,0.8,1.2,0,2.5
		c-1,1.2-3.6,1.5-4.9,1c-1.4-0.5-0.8-2.7-0.3-3.9c1.5-3.9,2-7.3,4.9-10.9c2.4-3.1,4.4-4.2,4.4-4.2L97.1,34.7z"/>
	<path id="XMLID_81_" class="st13" d="M93.5,37.6c-0.5,0.5-1.2,1.4-1.9,2.4c-2.5,3.9-2.5,6.3-2.5,6.3l-0.5,0.8
		c-0.5-4.4,1.5-6.8,3.6-10.5L93.5,37.6z"/>
	<path id="XMLID_80_" class="st16" d="M91.1,48.5L91.1,48.5c-0.2,0.3-0.3,0.3-0.5,0.3c-0.2,0-0.2,0.5-0.2,0.7c0,0.2,0-0.5-0.2-0.7
		c0-0.2-0.7-0.8-0.7-0.8s0.8,0.7,1,0.7C90.6,48.6,91,48.5,91.1,48.5z"/>
	<path id="XMLID_79_" class="st4" d="M100.6,35.2c-0.3,1.2-6.5,2.5-7.5,3.9c-0.3,0.5-3.4-2.9-3.2-3.4c0.5-0.8,5.9-5.6,8.3-5.4
		C101,30.3,100.6,35.2,100.6,35.2z"/>
	<path id="XMLID_78_" class="st5" d="M100.6,35.5c-1.9,1.5-6.5,2-7.5,3.6c-0.2,0.2-0.7-0.2-1.2-0.5c0.5-0.3,0.7-0.8,2-1.4
		c1.4-0.5,4.1-0.5,6.6-1.9C100.6,35.5,100.6,35.5,100.6,35.5z"/>
	<path id="XMLID_77_" class="st12" d="M94.2,38.3c-0.5,0.3-0.7,0.5-1,0.8c-0.3,0.5-3.4-2.9-3.2-3.4c0.2-0.2,0.3-0.5,0.7-0.8
		c0.3,0.5,0.8,1.2,1.5,1.7C92.8,37.1,93.5,37.8,94.2,38.3z"/>
	<path id="XMLID_76_" class="st62" d="M94.2,38.3c-0.5,0.3-0.8,0.5-1,0.8c-0.2,0.2-0.7-0.2-1.2-0.5c0.3-0.2,0.8-0.5,1.4-0.8
		C93.7,37.8,94,38.1,94.2,38.3z"/>
	<ellipse id="XMLID_73_" class="st48" cx="103.7" cy="49.8" rx="0.3" ry="0.3"/>
	<path id="XMLID_72_" class="st13" d="M112.7,31.5c0.3,0.8,0.5,1.5,0.8,2.2c0.2,0.3,0.2,0.5,0.3,0.8c0.3,0.8,0.5,1.7,0.7,2.4v0.2
		c0.2,0.3,0.2,0.7,0.3,1l-0.2,0.2l0.2,1.2c0.2,0,0.3,0.2,0.5,0.3c0.3,0.2,0.7,0.3,0.8,0.5c0.2,0.2-0.3-2.5-0.5-2.9
		c0-0.2-0.3-1-0.7-2c0-0.2,0-0.2-0.2-0.3c-0.3-1.2-0.8-2.4-1-3.1c0-0.2,0-0.2-0.2-0.2c-0.2-0.2-0.2-0.3-0.2-0.3
		c-0.2,0-0.3-0.2-0.8-0.3c0,0,0,0-0.2,0c-0.2,0-0.2,0-0.3-0.2c-0.2,0-0.5-0.2-0.7-0.3c-0.3-0.2-0.7-0.3-0.8-0.5c0,0.2,0,0.3,0.3,0.7
		c0.2,0.2,0.5,0.3,0.7,0.5c0.2,0,0.3,0.2,0.3,0.2C112,31.3,112.4,31.3,112.7,31.5C112.5,31.5,112.7,31.5,112.7,31.5z"/>
	<path id="XMLID_70_" class="st63" d="M87.1,53.4c-0.8-0.5-2.5,2-3.9,5.8c-1.2,3.7-1.7,7.1-0.8,7.6s2.5-2,3.9-5.8
		C87.6,57.3,87.9,53.9,87.1,53.4z"/>
	<path id="XMLID_69_" class="st2" d="M67.4,45.9c1.9,0.3,3.1,0.2,3.7,0.2c0.7,0,0.8,1,0,1.2c-0.8,0.2-3.2,0.5-3.7,0.3
		C67.5,47.6,65.5,45.6,67.4,45.9z"/>
	<path id="XMLID_68_" class="st41" d="M80.4,42h-0.2v-0.3h0.5V42C80.6,42,80.4,42,80.4,42z"/>
	<path id="XMLID_67_" class="st41" d="M80.8,46.4h-0.2v-0.3h0.5v0.3C80.9,46.4,80.8,46.4,80.8,46.4z"/>
	<polygon id="XMLID_66_" class="st64" points="77.9,39.5 79.8,37.6 72.8,37.1 64,37.6 64.6,39.1 	"/>
	<path id="XMLID_65_" class="st65" d="M71.8,41.3l-1.5,1.2c0,0-6.5-0.8-6.8-1.2c-1-1.2-0.8-3.2,0.5-3.7l6.6,0.7L71.8,41.3z"/>
	<polygon id="XMLID_64_" class="st40" points="80.1,41.3 79.9,41.7 78.7,41.7 78.9,41.3 	"/>
	<path id="XMLID_63_" class="st66" d="M70.6,38.3c-1.2,1-1.2,3.1-0.3,4.2l9.7-0.8l0,0l0,0l0,0v-0.3h-0.5l0,0
		c-0.7-0.7-0.7-2.5-0.2-3.6h0.2v-0.3L70.6,38.3z"/>
	<path id="XMLID_62_" class="st12" d="M79.6,41.3c-0.5-0.7-0.5-2.5-0.2-3.6l-8.7,0.7c-0.8,0.8-1,2.5-0.3,3.7L79.6,41.3z"/>
	<g id="XMLID_50_">
		<g>
			<defs>
				<path id="SVGID_3_" d="M79.6,41.3c-0.5-0.7-0.5-2.5-0.2-3.6l-8.7,0.7c-0.8,0.8-1,2.5-0.3,3.7L79.6,41.3z"/>
			</defs>
			<clipPath id="SVGID_4_">
				<use xlink:href="#SVGID_3_"  style="overflow:visible;"/>
			</clipPath>
			<g id="XMLID_52_" class="st67">
				<g id="XMLID_53_">
					<polygon id="XMLID_61_" class="st21" points="69.2,39.1 80.3,38.1 80.3,37.9 69.2,38.9 					"/>
					<polygon id="XMLID_60_" class="st21" points="69.2,39.5 80.3,38.6 80.3,38.4 69.2,39.3 					"/>
					<polygon id="XMLID_59_" class="st21" points="69.2,40 80.3,38.9 80.3,38.8 69.2,39.8 					"/>
					<polygon id="XMLID_58_" class="st21" points="69.2,40.3 80.3,39.5 80.3,39.3 69.2,40.1 					"/>
					<polygon id="XMLID_57_" class="st21" points="69.2,40.8 80.3,39.8 80.3,39.6 69.2,40.6 					"/>
					<polygon id="XMLID_56_" class="st21" points="69.2,41.2 80.3,40.3 80.3,40.1 69.2,41 					"/>
					<polygon id="XMLID_55_" class="st21" points="69.2,41.7 80.3,40.6 80.3,40.6 69.2,41.5 					"/>
					<polygon id="XMLID_54_" class="st21" points="69.2,42 80.3,41.2 80.3,41 69.2,41.8 					"/>
				</g>
			</g>
		</g>
	</g>
	<path id="XMLID_49_" class="st27" d="M49.7,41.2c-0.2-0.8-2.4-2.2-4.4-0.3c-2.7,2.4-1,10.7,2,10.9c1.9,0,2.9-0.3,2.9-1.2
		C50.2,50.2,49.7,42.2,49.7,41.2z"/>
	<path id="XMLID_48_" class="st68" d="M47.8,40c-0.7-0.2-1.7,0-2.5,0.8c-2.4,2-1.4,9.2,1.2,10.5c1.5-0.3,2.4-4.2,1.7-9.2
		C48.2,41.5,48,40.6,47.8,40z"/>
	<path id="XMLID_47_" class="st69" d="M49.9,42.3c-0.2,0.2-1.2,1.9-2.4,2.4c-1.2,0.5-3.6,0.5-3.9-0.3c-0.3-1,0.5-3.1,1.4-3.7
		c0.8-0.7,1-1,2-1.2C48.5,39.5,50.5,41.2,49.9,42.3z"/>
	<ellipse id="XMLID_46_" class="st21" cx="44.9" cy="44.2" rx="0.5" ry="0.5"/>
	<path id="XMLID_45_" class="st45" d="M14,15.5c0.8-2,5.8-2.9,5.1-1.4C16.7,13.6,15.2,15,14,15.5z"/>
	<path id="XMLID_388_" class="st45" d="M25.6,13.6c-1.4-1.4-4.8-0.3-3.6,0.7C23.2,13.1,24.7,13.5,25.6,13.6z"/>
	<path id="XMLID_44_" class="st43" d="M65.7,11.8c-1.7-1.9-7.5-0.2-6.1,1.2C61.9,11.1,64.3,11.6,65.7,11.8z"/>
	<path id="XMLID_5_" class="st43" d="M50,14.8c0.8-2.4,7.5-3.6,6.8-1.7C53.6,12.6,51.4,14.1,50,14.8z"/>
	<path id="XMLID_43_" class="st44" d="M51.6,17c0-0.2-0.2-0.2-0.2-0.3c-0.8,0-1.4-0.2-1.5-0.3c0,0,0.7,0.2,1.5,0c0,0,0,0,0-0.2
		c-0.8,0-1.2-0.3-1.4-0.5c0,0,0.7,0.3,1.4,0.3c0,0,0,0,0-0.2c-0.8-0.2-1-0.5-1-0.7c0,0,0.5,0.3,1.2,0.5c1-1.7,4.6-3.2,5.9-0.5
		C55.3,12.6,51.4,15.3,51.6,17z"/>
	<path id="XMLID_42_" class="st44" d="M65.5,14.3c0-0.2,0-0.3,0-0.3c0.7-0.3,1-0.5,1.2-0.8c0,0-0.7,0.3-1.2,0.5c0,0,0,0,0-0.2
		c0.5-0.3,0.8-0.7,0.8-1c0,0-0.5,0.5-1,0.7c0,0,0,0,0-0.2c0.5-0.5,0.7-0.8,0.7-1c0,0-0.3,0.5-0.8,0.8c-1.2-1.4-4.4-1-4.6,2.4
		C61.4,11.6,65,12.6,65.5,14.3z"/>
	<path id="XMLID_41_" class="st70" d="M36.1,61c1.9-1,5.3-2.5,6.3-2.5c0.8,0,1.5,0.3,1.7,1l-1,0.7l-10.2,8.7
		c-0.8-0.7-1.7-2.7-1.7-2.7s-0.5-1.7-0.8-2C30,63.7,30,63.6,30,63.6c0.2-0.7,1.7-3.6,4.6-3.6c0.2,0,0.3,0.8,1,0.8
		C35.8,61,35.9,61,36.1,61z"/>
	<path id="XMLID_40_" class="st10" d="M43.7,59c0.3,0.2,0.5,0.3,0.5,0.5c-0.2,0.2-0.3,0.3-0.5,0.3L35.1,67l-2.4,1.9
		c-0.2-0.2-0.5-0.5-0.7-0.8C33.7,64.8,40.2,59.3,43.7,59z"/>
	<path id="XMLID_39_" class="st71" d="M44.4,59.5c0.3,1-10.4,9.7-11.4,9.5C31.5,68.8,43.9,58.1,44.4,59.5z"/>
	<path id="XMLID_38_" class="st70" d="M5.2,67c-0.5,1-1.4,3.6-1.7,4.1c-0.5,1-0.2,2.9-0.2,2.9s11.6,0,11.9,0c0.3,0,2,0,1.9-1
		c0-1.2-0.3-1.7-3.2-2.9c-1.4-0.5-2.9-0.5-3.6-1.2c-0.5-0.7,0.5-0.8,0.3-1.7C10.4,66.5,5,65.6,5.2,67z"/>
	<path id="XMLID_37_" class="st10" d="M3.1,73.3c0,0.5,0,1,0,1s11.6,0,11.9,0c0.3,0,2,0,1.9-1c0-0.2,0-0.3,0-0.5
		c-0.7,0.2-1.7,0.5-2.9,0.7C12.3,73.3,5.2,73.3,3.1,73.3z"/>
	<path id="XMLID_36_" class="st50" d="M9.9,26.2c-1.5-0.3-1.5-0.3-2.5,0.3C4.7,28.1,5.9,35,5.7,37.4c0,0,3.6-0.5,4.2-0.5
		c0.7,0,0.8-0.2,0.8-0.2C11.1,34.9,11.5,26.4,9.9,26.2z"/>
	<path id="XMLID_35_" class="st16" d="M45.8,18.1c-1-0.8-3.1,1.2-1.5,2.9c0.8,0.8,1.4,1.2,2,0.8c0.7-0.5,0.8-1,0.3-1.4
		c-0.5-0.2-1-0.2-1-0.7c0-0.3,0-0.3,0.3-0.5C46.5,19.1,45.8,18.1,45.8,18.1z"/>
	<ellipse id="XMLID_34_" class="st12" cx="46.8" cy="22.8" rx="0.7" ry="0.7"/>
	<path id="XMLID_33_" class="st16" d="M21,18.6c0.2,1,0.8,1.4,1.7,1.7c-0.3,0.8-1.5,1.2-1.4,1l0.8-1C21.2,20.1,20.8,19.4,21,18.6z"
		/>
	<path id="XMLID_32_" class="st25" d="M19.6,23c0,0,0-0.3,0-0.5c-1.2,0.2-2.5,0.2-3.6,0h-0.2c0,0.2,0,0.5,0,0.7
		C17.2,23.3,18.3,23.5,19.6,23z"/>
	<path id="XMLID_31_" class="st8" d="M17.8,14.7c0.7,0,1.4,0.3,1.9,1c0.3-0.2,0.8-0.3,1.2-0.3c0.5,0,0.8,0.2,1.2,0.2
		c0.5-1,1.5-1.7,2.5-1.7c1.4,0,2.4,1.5,2,3.4c-0.2,1.9-1.5,3.2-2.9,3.2s-2.4-1.5-2-3.4c0-0.3,0-0.5,0.2-0.7c-0.7-0.2-1-0.2-1.5,0.2
		c0.2,0.5,0.2,1,0.2,1.7c-0.2,1.9-1.7,3.2-3.2,3.2c-1.5,0-2.7-1.5-2.5-3.4c0-0.3,0.2-0.5,0.2-0.8c-1.2-0.2-8.7-1-8.7-1v-0.7
		c0,0,7.6,0.5,9,0.7C15.9,15.2,16.9,14.7,17.8,14.7z"/>
	<path id="XMLID_30_" class="st72" d="M17.8,15c1.4,0,2.4,1.4,2.2,3.1c-0.2,1.7-1.5,2.9-2.9,2.9c-1.4,0-2.4-1.4-2.2-3.1
		C15,16.2,16.4,14.8,17.8,15z"/>
	<path id="XMLID_29_" class="st72" d="M24.5,14.1c1.2,0,2,1.4,1.9,3.1c-0.2,1.7-1.4,2.9-2.5,2.9s-2-1.4-1.9-3.1
		C22,15.3,23.2,14,24.5,14.1z"/>
	<path id="XMLID_28_" class="st72" d="M16.1,20.6c1-1.2,2.4-2.2,4.1-3.1c0-1.4-1-2.5-2.2-2.5c-1.4,0-2.7,1.2-2.9,2.9
		C14.7,19.1,15.2,20.1,16.1,20.6z"/>
	<path id="XMLID_27_" class="st72" d="M21.8,16.9H22l0,0c0.8-0.3,1.9-0.5,2.7-0.5c0.3,0,0.5,0,0.8,0c0.2,0,0.5,0,0.7,0
		c0-0.3-0.2-0.8-0.3-1c0-0.3,0-0.5-0.2-0.7c-0.3-0.3-0.7-0.5-1.2-0.7c-0.8,0-1.7,0.5-2.2,1.5C22,16,22,16.5,21.8,16.9z"/>
	<path id="XMLID_26_" class="st25" d="M19.8,16.4c-2,0.8-3.6,2-4.6,3.4c0.2,0.3,0.5,0.7,0.8,0.8c1-1.2,2.4-2.2,4.1-3.1
		C20.1,17,20,16.7,19.8,16.4z"/>
	<path id="XMLID_25_" class="st25" d="M22.3,15.7C22.2,16,22,16.5,22,16.9h0.2l0,0c0.8-0.3,1.9-0.5,2.7-0.5c0.3,0,0.5,0,0.8,0
		c0.2,0,0.5,0,0.7,0c0-0.3-0.2-0.8-0.3-1v-0.2h-0.2c-1,0-2.2,0.2-3.4,0.3C22.3,15.5,22.3,15.5,22.3,15.7z"/>
	<path id="XMLID_24_" class="st2" d="M4.7,14.8c1.4-0.5,3.1,0.7,3.7,2.5c0.7,1.9,0.5,4.2-0.7,4.8c-1.4,0.5-3.4-1.2-4.1-3.1
		C2.8,17.2,3.3,15.2,4.7,14.8z"/>
	<path id="XMLID_23_" class="st16" d="M5.9,15.7c-1-1-2.5,1.5-1.2,3.4c0.7,1,1.7,2.5,2.2,2c0.7-0.7,1-1.5,0.5-2.2
		c-0.3-0.5-1-0.7-1-1c0-0.5,0-0.5,0.3-0.7S5.9,15.7,5.9,15.7z"/>
	<path id="XMLID_22_" class="st13" d="M13.5,10.7c0,0,0.3,0.3,1.2,0.5s1.2-0.2,1.2-0.2l0.3-0.2c0,0,0.2,0.2,0.8,0.2s1.2-0.7,1.2-0.7
		s0.3,0,0.7,0.2c-0.3-0.2-0.5-0.3-0.7-0.5c-0.3,0.8-1.4,1-2,0.5c-0.5,0.7-1.5,0.7-1.9,0c-0.5,0.2-1,0-1.4-0.5c0,0.8-0.7,1.5-1.4,1.5
		c0.2,0.8-0.5,1.7-1.5,1.7c0,0.3-0.2,0.7-0.5,0.8c0.5,0.5,0.2,1.4-0.5,1.4l0,0l0,0c0.2,0,0.5,0,0.7,0v-0.2c0,0.2,0.5-0.3,0.5-0.8
		c0-0.5-0.2-0.8-0.2-0.8s0.5-0.3,0.8-0.7c0.2-0.2,0.7-0.8,0.7-1.2c0-0.3,0-0.3,0-0.3s0.8,0,1.4-0.3C13.5,10.9,13.5,10.7,13.5,10.7z"
		/>
	<path id="XMLID_21_" class="st13" d="M30.3,39.6c0,0-0.3,0.2,0,0.7c0.3,0,0.7-0.2,0.8-0.2c0.2-0.2,0.5-0.5,0.8-0.8l0.2-0.2
		c0,0,0,0,0.2-0.2l0.2-0.2c0.5-0.3,0.5-0.3,0.7-0.7l0,0l0,0c0,0,0-0.2,0-0.3c0-0.3,0.2-0.7,0.3-0.8l0,0l0.2-0.2l0,0
		c0,0-0.2,0-0.2,0.2c-0.2,0.2-0.3,0.7-0.3,1c0,0.2-0.2,0.3-0.2,0.3l0,0l0,0c-0.2,0.2-0.5,0.3-0.7,0.7l0,0l0,0
		c-0.2,0.2-0.3,0.3-0.3,0.3L30.3,39.6z"/>
	<path id="XMLID_20_" class="st73" d="M10.3,35c0,0.2-0.5,0.3-1.4,0.7c-0.8,0.3-1.9,0.7-2.7,0.8c-0.2,0-0.3,0.2-0.5,0.2
		c0,0.2,0,0.5,0,0.7c0,0,0.2,0,0.7-0.2c0.7-0.2,2-0.3,2.9-0.3c0.3,0,0.5,0,0.7,0c0,0,0,0,0.2,0c0.7,0,0.8-0.2,0.8-0.2
		c0.2-1.2,0.3-4.8,0-7.5v-0.2v-0.2c0-0.2,0-0.3,0-0.5s0-0.3,0-0.3l0,0v-0.2c0-0.2,0-0.2,0-0.3l0,0c0,0.2,0,0.8-0.2,1.7
		c0,0,0,0,0,0.2C10.4,31.3,10.3,34.5,10.3,35L10.3,35z"/>
	<path id="XMLID_19_" class="st13" d="M71.8,58.6c0.5,0.3,1.2,0.7,1.7,1.2c0.2-0.2,0.2-0.5,0.5-0.8l-1.4-1l-2.5-1.7
		c-0.3,0.2-0.7,0.3-1,0.7C69.7,57.3,70.7,58,71.8,58.6z"/>
	<path id="XMLID_18_" class="st74" d="M74,58.8c-0.2,0.3-0.3,0.7-0.5,0.8c0,0.2,0,0.2,0,0.3c0,0.3,3.7,2.5,4.8,3.1
		c0-0.2,0-0.2,0-0.3c0-0.5,0.2-1,0.3-1.7L74,58.8z"/>
	<path id="XMLID_17_" class="st13" d="M53.9,63.2c-0.3,0-0.8-0.2-1.2-0.2l-0.7,1.5c0.2,0,0.2,0,0.3,0c0,0,0.3,0.2,0.7,0.2
		C53.6,64.4,53.8,63.7,53.9,63.2z"/>
	<path id="XMLID_16_" class="st74" d="M53.3,64.9c-0.3-0.2-0.7-0.2-0.7-0.2c-0.2,0-0.2,0-0.3,0c-0.2,0-0.2,0.2-0.3,0.3
		C51.4,66,50.4,68,49.5,70c0,0,0,0,0.2-0.2c0-0.2,0.3-0.2,0.7-0.3c0.3-0.2,0.8-0.3,1.5-0.3c0.2-0.3,0.2-0.5,0.3-0.8
		C52.1,67.8,52.6,66.5,53.3,64.9z"/>
	<g id="XMLID_275_">
		<g>
			<path class="st75" d="M101,5.5"/>
		</g>
	</g>
</g>
</svg>
