<?xml version="1.0" encoding="utf-8"?>
<!-- Generator: Adobe Illustrator 19.2.0, SVG Export Plug-In . SVG Version: 6.00 Build 0)  -->
<svg version="1.1" id="Laag_1" xmlns="http://www.w3.org/2000/svg" xmlns:xlink="http://www.w3.org/1999/xlink" x="0px" y="0px"
	 viewBox="0 0 330 12" style="enable-background:new 0 0 330 12;" xml:space="preserve">
<style type="text/css">
	.st0{fill:#EBE538;}
	.st1{fill:#636669;}
	.st2{fill:#303333;}
</style>
<g>
	<path class="st0" d="M10.9,6c0,2.9-2.4,5.3-5.3,5.3c-2.9,0-5.3-2.4-5.3-5.3s2.4-5.3,5.3-5.3C8.5,0.7,10.9,3.1,10.9,6"/>
	<path class="st1" d="M25.1,6c0,2.9-2.4,5.3-5.3,5.3c-2.9,0-5.3-2.4-5.3-5.3s2.4-5.3,5.3-5.3C22.7,0.7,25.1,3.1,25.1,6"/>
	<path class="st2" d="M39,6c0,2.9-2.4,5.3-5.3,5.3S28.3,8.9,28.3,6s2.4-5.3,5.3-5.3S39,3.1,39,6"/>
	<path class="st2" d="M322.1,9.8c0.5,0.5,1,0.8,1.7,1.1c0.6,0.3,1.3,0.4,2,0.4c0.8,0,1.5-0.2,2.2-0.5c0.7-0.3,1.3-0.7,1.8-1.3V5.8
		H325V7h3.5V9c-0.3,0.3-0.7,0.5-1.2,0.8c-0.5,0.2-1,0.3-1.6,0.3c-1.1,0-2-0.4-2.8-1.2c-0.7-0.8-1.1-1.8-1.1-3c0-0.8,0.2-1.5,0.5-2.1
		c0.3-0.6,0.8-1.1,1.4-1.5c0.6-0.3,1.3-0.5,2-0.5c0.6,0,1.2,0.1,1.7,0.4s0.9,0.6,1.3,1l1-0.6c-1-1.3-2.3-1.9-3.9-1.9
		c-0.7,0-1.4,0.1-2,0.4c-0.6,0.3-1.2,0.6-1.7,1.1c-0.5,0.4-0.8,1-1.1,1.7c-0.3,0.7-0.4,1.4-0.4,2.1s0.1,1.5,0.4,2.2
		C321.2,8.8,321.6,9.4,322.1,9.8 M311.5,11.1V3l5.9,8.1h1.2V0.9h-1.3v7.9l-5.8-7.9h-1.3v10.1H311.5z M307.8,0.9h-1.3v10.1h1.3V0.9z
		 M297.2,2h2.2c0.8,0,1.5,0.2,2.1,0.5c0.6,0.4,1,0.8,1.3,1.4c0.3,0.6,0.4,1.3,0.4,2c0,0.7-0.2,1.4-0.4,2c-0.3,0.6-0.7,1.1-1.3,1.4
		c-0.6,0.4-1.3,0.5-2.1,0.5h-2.2V2z M299.4,11.1c0.8,0,1.5-0.1,2.1-0.4c0.7-0.3,1.2-0.6,1.6-1.1c0.4-0.5,0.8-1,1-1.6
		c0.2-0.6,0.4-1.3,0.4-2c0-1-0.2-1.8-0.6-2.6c-0.4-0.8-1-1.4-1.8-1.8c-0.8-0.4-1.7-0.7-2.7-0.7h-3.5v10.1H299.4z M293.9,11.1V9.9
		h-5.4V6.4h5.3V5.3h-5.3V2h5.4V0.9h-6.6v10.1H293.9z M285.5,11.1V9.9h-4.7v-9h-1.3v10.1H285.5z M271.7,11.1V7.6l1-1.2l3.8,4.6h1.6
		l-4.6-5.3l4.2-4.8h-1.6l-4.5,5.2V0.9h-1.3v10.1H271.7z M268.4,11.1V9.9H263V6.4h5.3V5.3H263V2h5.4V0.9h-6.6v10.1H268.4z M253.4,2h3
		c0.6,0,1,0.2,1.3,0.5c0.3,0.3,0.5,0.7,0.5,1.2c0,0.5-0.2,0.9-0.5,1.2c-0.3,0.3-0.7,0.5-1.3,0.5h-3V2z M253.4,6.4h3.1
		c0.6,0,1.1,0.2,1.4,0.5c0.3,0.3,0.5,0.8,0.5,1.2c0,0.5-0.2,1-0.5,1.3c-0.3,0.3-0.8,0.5-1.4,0.5h-3.1V6.4z M256.8,11.1
		c0.9,0,1.6-0.2,2.2-0.7c0.5-0.5,0.8-1.2,0.8-2c0-0.6-0.2-1.2-0.6-1.6c-0.4-0.5-0.9-0.8-1.4-0.9c0.5-0.1,0.9-0.4,1.3-0.8
		c0.3-0.4,0.5-0.9,0.5-1.5c0-0.8-0.3-1.4-0.8-1.9c-0.5-0.5-1.2-0.7-2.1-0.7h-4.5v10.1H256.8z M244.2,2h2.7c0.6,0,1.1,0.2,1.5,0.5
		c0.4,0.4,0.6,0.8,0.6,1.4s-0.2,1-0.6,1.4c-0.4,0.4-0.9,0.5-1.5,0.5h-2.7V2z M244.2,11.1V7h2l2.6,4h1.5l-2.7-4.1
		c0.7-0.1,1.4-0.4,1.9-0.9s0.8-1.2,0.8-2.1c0-0.9-0.3-1.7-0.9-2.2c-0.6-0.6-1.4-0.8-2.3-0.8h-4.1v10.1H244.2z M240.9,11.1V9.9h-5.4
		V6.4h5.3V5.3h-5.3V2h5.4V0.9h-6.6v10.1H240.9z M224.6,3c0.7-0.8,1.6-1.2,2.7-1.2c0.7,0,1.4,0.2,2,0.5c0.6,0.4,1,0.8,1.3,1.5
		c0.3,0.6,0.5,1.3,0.5,2.1c0,0.8-0.2,1.5-0.5,2.1c-0.3,0.6-0.7,1.1-1.3,1.5c-0.6,0.4-1.2,0.5-2,0.5c-0.7,0-1.4-0.2-2-0.5
		c-0.6-0.4-1-0.9-1.3-1.5c-0.3-0.6-0.4-1.3-0.4-2.1C223.6,4.8,223.9,3.8,224.6,3 M224.6,10.6c0.8,0.5,1.6,0.7,2.6,0.7
		c1,0,1.9-0.2,2.6-0.7c0.8-0.5,1.4-1.1,1.8-1.9c0.4-0.8,0.6-1.7,0.6-2.7s-0.2-1.9-0.6-2.7c-0.4-0.8-1-1.4-1.8-1.9
		c-0.8-0.5-1.6-0.7-2.6-0.7c-1,0-1.9,0.2-2.6,0.7s-1.4,1.1-1.8,1.9c-0.4,0.8-0.6,1.7-0.6,2.7s0.2,1.9,0.6,2.7
		C223.3,9.5,223.9,10.1,224.6,10.6 M221.4,11.1V9.9h-4.7v-9h-1.3v10.1H221.4z M208.5,11.1h1.6l4.1-10.1h-1.4l-3.4,8.8l-3.4-8.8h-1.4
		L208.5,11.1z M192,11.1V3l5.9,8.1h1.2V0.9h-1.3v7.9L192,0.9h-1.3v10.1H192z M188.7,11.1V9.9h-5.4V6.4h5.3V5.3h-5.3V2h5.4V0.9h-6.6
		v10.1H188.7z M168.7,11.1V3l5.9,8.1h1.2V0.9h-1.3v7.9l-5.8-7.9h-1.3v10.1H168.7z M165.4,11.1V9.9H160V6.4h5.3V5.3H160V2h5.4V0.9
		h-6.6v10.1H165.4z M150.9,11.1V7.6l1-1.2l3.8,4.6h1.6l-4.6-5.3l4.2-4.8h-1.6l-4.5,5.2V0.9h-1.3v10.1H150.9z M141.7,2h2.7
		c0.6,0,1.1,0.2,1.5,0.5c0.4,0.4,0.6,0.8,0.6,1.4s-0.2,1-0.6,1.4c-0.4,0.4-0.9,0.5-1.5,0.5h-2.7V2z M141.7,11.1V7h2l2.6,4h1.5
		L145,6.9c0.7-0.1,1.4-0.4,1.9-0.9s0.8-1.2,0.8-2.1c0-0.9-0.3-1.7-0.9-2.2c-0.6-0.6-1.4-0.8-2.3-0.8h-4.1v10.1H141.7z M138.4,11.1
		V9.9H133V6.4h5.3V5.3H133V2h5.4V0.9h-6.6v10.1H138.4z M120.2,11.1h1.4l2.2-8.2l2.2,8.2h1.4l2.9-10.1h-1.4l-2.2,8.5l-2.3-8.5h-1
		L121,9.4l-2.2-8.4h-1.4L120.2,11.1z M110.3,2h2.7c0.6,0,1.1,0.2,1.5,0.5c0.4,0.4,0.6,0.8,0.6,1.4s-0.2,1-0.6,1.4
		c-0.4,0.4-0.9,0.5-1.5,0.5h-2.7V2z M110.3,11.1V7h2l2.6,4h1.5l-2.7-4.1c0.7-0.1,1.4-0.4,1.9-0.9c0.5-0.5,0.8-1.2,0.8-2.1
		c0-0.9-0.3-1.7-0.9-2.2c-0.6-0.6-1.4-0.8-2.3-0.8h-4.1v10.1H110.3z M107.1,11.1V9.9h-5.4V6.4h5.3V5.3h-5.3V2h5.4V0.9h-6.6v10.1
		H107.1z M91.1,2h2.2c0.8,0,1.5,0.2,2.1,0.5c0.6,0.4,1,0.8,1.3,1.4c0.3,0.6,0.4,1.3,0.4,2c0,0.7-0.1,1.4-0.4,2
		C96.4,8.6,96,9,95.4,9.4c-0.6,0.4-1.3,0.5-2.1,0.5h-2.2V2z M93.3,11.1c0.8,0,1.5-0.1,2.1-0.4c0.7-0.3,1.2-0.6,1.6-1.1
		c0.4-0.5,0.8-1,1-1.6c0.2-0.6,0.4-1.3,0.4-2c0-1-0.2-1.8-0.6-2.6c-0.4-0.8-1-1.4-1.8-1.8s-1.7-0.7-2.7-0.7h-3.5v10.1H93.3z
		 M88,11.1V9.9h-4.7v-9H82v10.1H88z M79.7,0.9h-1.3v10.1h1.3V0.9z M68.9,11.1V6.4h5.9v4.7H76V0.9h-1.3v4.4h-5.9V0.9h-1.3v10.1H68.9z
		 M58.4,9.8c0.5,0.5,1,0.8,1.7,1.1s1.3,0.4,2,0.4c1.6,0,2.9-0.7,3.9-2l-1.1-0.6c-0.3,0.4-0.7,0.8-1.2,1.1c-0.5,0.3-1,0.4-1.6,0.4
		c-0.7,0-1.4-0.2-2-0.5c-0.6-0.3-1.1-0.8-1.4-1.5c-0.3-0.6-0.5-1.3-0.5-2.1c0-0.8,0.2-1.5,0.5-2.1c0.3-0.6,0.8-1.1,1.4-1.5
		c0.6-0.3,1.3-0.5,2-0.5c0.6,0,1.1,0.1,1.6,0.4c0.5,0.3,0.9,0.6,1.2,1.1L66,2.8c-0.9-1.3-2.2-2-3.8-2c-0.7,0-1.4,0.1-2,0.4
		c-0.6,0.3-1.2,0.6-1.7,1.1c-0.5,0.5-0.8,1-1.1,1.7C57,4.5,56.9,5.2,56.9,6s0.1,1.5,0.4,2.1C57.6,8.8,57.9,9.3,58.4,9.8 M51.7,11.2
		c0.5,0,1-0.1,1.4-0.2c0.4-0.1,0.8-0.3,1.1-0.5c0.3-0.2,0.5-0.4,0.7-0.7c0.2-0.3,0.3-0.5,0.4-0.8c0.1-0.3,0.1-0.6,0.1-0.9
		c0-0.4-0.1-0.8-0.2-1.1c-0.1-0.3-0.3-0.6-0.6-0.8c-0.2-0.2-0.5-0.4-0.8-0.5c-0.3-0.2-0.6-0.3-0.9-0.4c-0.3-0.1-0.7-0.2-1-0.3
		c-0.3-0.1-0.7-0.2-1-0.3c-0.3-0.1-0.6-0.2-0.8-0.3c-0.2-0.1-0.4-0.3-0.6-0.5c-0.1-0.2-0.2-0.4-0.2-0.6c0-0.5,0.2-0.9,0.6-1.2
		c0.4-0.3,0.9-0.4,1.5-0.4c1.2,0,2.2,0.4,2.9,1.2l0.8-0.9c-0.9-0.9-2.1-1.4-3.6-1.4c-1,0-1.8,0.3-2.5,0.8c-0.7,0.5-1,1.2-1,2
		c0,0.4,0.1,0.7,0.2,1c0.1,0.3,0.3,0.5,0.6,0.7c0.2,0.2,0.5,0.4,0.8,0.5C50,6,50.3,6.1,50.6,6.2s0.7,0.2,1,0.3
		c0.3,0.1,0.6,0.2,0.9,0.3c0.3,0.1,0.6,0.2,0.8,0.3c0.2,0.1,0.4,0.3,0.6,0.5c0.1,0.2,0.2,0.5,0.2,0.7c0,0.2,0,0.4-0.1,0.6
		c-0.1,0.2-0.2,0.4-0.4,0.6c-0.2,0.2-0.4,0.3-0.8,0.4c-0.3,0.1-0.7,0.2-1.1,0.2c-0.7,0-1.3-0.1-1.8-0.4s-1-0.6-1.4-1l-0.7,1
		C48.8,10.7,50.1,11.2,51.7,11.2"/>
</g>
</svg>
