<?xml version="1.0" encoding="utf-8"?>
<!-- Generator: Adobe Illustrator 19.2.0, SVG Export Plug-In . SVG Version: 6.00 Build 0)  -->
<svg version="1.1" id="Laag_1" xmlns="http://www.w3.org/2000/svg" xmlns:xlink="http://www.w3.org/1999/xlink" x="0px" y="0px"
	 viewBox="0 0 330 330" style="enable-background:new 0 0 330 330;" xml:space="preserve">
<style type="text/css">
	.st0{fill:#333333;stroke:#FFFFFF;stroke-width:2;stroke-miterlimit:10;}
	.st1{fill:#EBE538;stroke:#FFFFFF;stroke-width:2;stroke-miterlimit:10;}
</style>
<g>
	<polygon class="st0" points="29.7,149.9 18.7,139.2 170.9,54.8 182.7,62.1 	"/>
	<polygon class="st0" points="125.5,110.7 113.5,101.8 182.7,62.1 194.9,69.6 	"/>
	<polygon class="st0" points="53.3,172.4 41.3,160.8 194.9,69.6 207.6,77.4 	"/>
	<polygon class="st0" points="151.2,129.9 138.1,120.1 207.6,77.4 220.8,85.4 	"/>
	<polygon class="st0" points="79.1,197 65.9,184.3 220.8,85.4 234.5,93.8 	"/>
	<polygon class="st1" points="179,150.7 164.8,140.1 234.5,93.8 248.6,102.6 	"/>
	<polygon class="st1" points="107.4,223.9 92.9,210.1 248.6,102.6 263.4,111.6 	"/>
	<polygon class="st1" points="209.2,173.4 193.7,161.8 263.4,111.6 278.7,121.1 	"/>
	<polygon class="st0" points="41.3,160.8 29.7,149.9 113.5,101.8 125.5,110.7 	"/>
	<polygon class="st0" points="65.9,184.3 53.3,172.4 138.1,120.1 151.2,129.9 	"/>
	<polygon class="st1" points="92.9,210.1 79.1,197 164.8,140.1 179,150.7 	"/>
	<polygon class="st1" points="122.6,238.4 107.4,223.9 193.7,161.8 209.2,173.4 	"/>
	<polygon class="st1" points="242.2,198 225.3,185.5 294.6,130.8 311.3,141 	"/>
	<polygon class="st1" points="155.3,269.7 138.6,253.6 225.3,185.5 242.2,198 	"/>
	<polygon class="st1" points="138.6,253.6 122.6,238.4 278.7,121.1 294.6,130.8 	"/>
</g>
</svg>
