<?xml version="1.0" encoding="utf-8"?>
<!-- Generator: Adobe Illustrator 19.2.0, SVG Export Plug-In . SVG Version: 6.00 Build 0)  -->
<svg version="1.1" id="Layer_1" xmlns="http://www.w3.org/2000/svg" xmlns:xlink="http://www.w3.org/1999/xlink" x="0px" y="0px"
	 viewBox="0 0 230 230" style="enable-background:new 0 0 230 230;" xml:space="preserve">
<style type="text/css">
	.st0{fill:#EAE538;}
	.st1{fill:#FFFFFF;}
	.st2{fill:none;}
</style>
<g>
	<path class="st0" d="M186.4,193.5c-6.2,7.1-13.7,13.2-21.7,18.2c-8,4.9-16.6,8.6-25,11.2c6.7-2.1,13.2-4.8,19.4-8.2
		c-4.6,2.5-9.1,4.4-13.7,5.8c-4.7,1.4-9.5,2.4-14.8,3c1.5-0.9,3.9-1.5,6.1-2.2c2.2-0.7,4.2-1.5,4.7-2.5c11.9-3.8,23.2-9.3,33.4-16.5
		c10.2-7.2,19.3-16,26.7-26c-1.1,5.1-3.9,8.3-6.8,10.6C191.8,189.4,188.7,191,186.4,193.5"/>
	<path class="st0" d="M102.6,223.3c2.5,0.2,4.9,0.3,7.4,0.3C107.4,223.7,104.9,223.6,102.6,223.3"/>
	<path class="st0" d="M179.9,51.1c-1.8-1.8-3.6-3.5-5.4-5.2C176.6,47.4,178.3,49.2,179.9,51.1"/>
	<path class="st0" d="M198,162.8c0.4-1.4,0.8-2.7,1.2-4.1c4.8-9.5,8.3-19.9,10.1-30.9c-0.9,6-1.9,12.1-3.6,18.1
		C204,152,201.5,157.8,198,162.8"/>
	<path class="st0" d="M189.4,171c-5.7,8.9-13.7,16.6-22.4,21.4C175.5,187.2,183.3,179.8,189.4,171"/>
	<path class="st0" d="M112.5,37.3c0,0.3-0.1,0.5-0.4,0.7c-0.2,0.1-0.5,0.2-0.6,0.4c-3.2-0.4-6.5-0.6-9.8-0.5
		c0.8-0.3,1.5-0.9,2.3-1.1c1.8,0,3,0.4,4.1,0.6C109.3,37.7,110.5,37.8,112.5,37.3"/>
	<path class="st0" d="M181.8,53.2l0.3,0.1c0.6,0.6,1.2,1.3,1.8,1.9c0,0.1,0.1,0.2,0.1,0.3C183.2,54.7,182.5,54,181.8,53.2"/>
	<path class="st0" d="M116.7,37.7c0,0.6,0.1,1.1,0.3,1.6c-1.8-0.4-3.6-0.6-5.4-0.9c0.2-0.1,0.4-0.2,0.6-0.4
		C113.4,37.7,115.3,38.3,116.7,37.7"/>
	<path class="st0" d="M152.5,56.3c0.9,0.7,2.4,0.4,3,0.6c1.8,2.5,3.3,5.1,5.3,8c0.6,0.2,1.3,1,2.5,1.5c0,0.8,0.2,1.6,0.3,2.4
		c-4.5-6-10-11.5-16.4-16.2C149.1,53.6,150.8,54.8,152.5,56.3"/>
	<path class="st0" d="M32.9,147.4c-2.5-5.7-3.7-12.5-4.4-19.1c-0.7-6.7-0.9-13.2-2-19.4c-0.7,3.6-1.2,7.6-1.4,11.5
		c-0.2,4-0.1,8,0,11.7c0.2,7.3,0.7,13.2-1.3,15.1c-2,1.9-4-3.2-5-10.5c-0.5-3.6-0.8-7.7-0.8-11.7c-0.1-4,0.1-7.7,0-10.8
		c-0.5,1.6-0.5,1.6-1,3.3c0.5-1.7,1-3.3,0.5-4.7c-0.6,1.6-1.1,4-1.6,6.3c-0.5,2.3-1,4.4-1.8,5.4c0,0-0.4-0.7-0.7-1.5l-0.7-1.5
		c-1.7,4.5-2.1,11-1.8,17.6c0.1,3.3,0.4,6.6,0.7,9.7c0.1,1.6,0.3,3.1,0.4,4.5c0,0.8,0.1,1.5,0.1,2.2c0,0.7,0,1.2,0,1.8l-0.1-1l0-0.5
		l-0.1-0.6c-0.1-0.8-0.2-1.6-0.3-2.3c-0.1-1.5-0.3-3-0.4-4.5c-0.3-3-0.5-6-0.6-9.1c-0.3-6.1-0.4-12.3-0.1-18.6
		c0.6-12.6,2.5-25.6,6.6-38.3c4-12.7,10.2-25.1,18.6-36C43.9,35.7,54.4,26.4,66.2,20C79,12.3,93,6.9,107.5,4.4
		c14.5-2.6,29.4-2.5,43.8,0.5c2.7,0.7,7,2.4,11.6,4.9c4.5,2.4,9.2,5.6,12.9,8.5c14,9,25.8,20.9,35.8,34.3
		c9.9,14.8,15.3,32.1,16.8,49.7c0.7,8.8,0.5,17.8-0.6,26.7c-1.1,9-3.2,18-6.1,27c-1.2,3.6-4,7.3-5.8,7.8c-0.9,0.3-1.5-0.2-1.5-1.8
		c0-1.6,0.5-4.3,1.6-8.6c3.1-14.4,4.4-28.9,3.8-43.3c0.8,0.8,1,3,1.2,5.3c0.1,2.4,0.1,4.9,0.6,6.5c0.8-5.4,1-10.4,0.9-15.3
		c-0.2-5-0.7-9.9-1.9-15.1c1.5,7,2.4,14.1,2.7,21.3c-0.3-8.9-1.6-18.4-4.1-27.7c-2.5-9.3-6.3-18.5-11.4-26.9
		c-1.8-3.1-2.5-6.6-3.9-10.2c-1.5-3.6-3.7-7.3-8.4-10C203.1,48.3,209,60,213,72.2c4,12.2,6.2,25,6.8,37.7c0,0-0.1-0.1-0.1-0.1
		c0.4,5.7,0.2,11.1-0.3,16.4c-0.5,5.4-1.4,10.6-2.7,16c0.6-3.4,0.9-6.9,1.7-9.8c-3.7,15.6-9.6,30.3-18.2,43.3
		c4.8-10,8.6-20.5,11.1-31.4c2.5-10.9,3.6-22.2,3.2-33.4c-0.4-11.3-2.4-22.5-6.2-33.1c-3.7-10.6-9.2-20.4-16.1-28.7
		c2.6,5.6,6.5,11.3,9.7,17.3c3.2,6,5.6,12.2,5.6,17.7c-5.5-18.5-15.6-35.8-30.2-49.8c1.2,0.9,2.5,1.7,3.7,2.5
		c-3.9-5-9-9.3-14.5-12.8c-5.5-3.5-11.5-6.4-17.3-8.9c-1-0.5-2.1-0.9-3.1-1.4c1,0.5,2.1,0.9,3.1,1.4c10.6,4.9,20.1,11.6,28.1,19.2
		c-4.2-2.9-8.4-6.2-13.8-10c2.4,2.7,6.2,6,9.7,9.5c4.9,4.2,9.5,8.9,13.4,14c-6.4-7.6-14.2-13.7-22.2-17.6
		c10.3,8.3,19.6,18.2,26.1,29.5c-4-5.9-8.6-11.3-13.8-16.2c-8-8.8-17.9-16.2-29.1-21.3c0.4,0.2,0.9,0.3,1.3,0.5
		c-0.9-0.4-1.7-0.7-2.6-1c-4.4-1.9-9-3.5-13.8-4.7c-4.3-0.9-8.7-0.9-12.9-0.5c-0.7,0-1.4-0.1-2.1-0.1c1.4-0.4,2.1-0.8-0.5-1.3
		c-5.6-1.1-11.5-0.6-17.5,0.4c-6,1-12,2.6-18.5,3.8c-3.4,0.6-7.6,2.7-11.8,5.3c-1.4,0.3-1.9,0.8-2.3,1.5c-0.9,0.6-1.8,1.2-2.6,1.8
		c-2.2,1.4-4.4,2.9-6.3,4.7c2-1.5,4.1-3.1,6.3-4.7c0.8-0.5,1.7-1,2.5-1.6c-0.4,0.7-0.7,1.5-2,2.2c7.8-4.5,16.3-7.8,25.2-9.9
		c8.9-2.1,18.2-2.8,27.5-2.3c-1.1,0.3-2.7,0.7-3.4,0.9c1.8-0.3,3.6-0.6,5.5-0.8c6,0.4,11.9,1.4,17.8,2.8c-1.8-0.2-3.5-0.3-5.1,0
		c16.4,4.1,31.9,12.4,44.3,24.3c10.9,11.9,18.4,26.2,22.6,41.1c-1.1-8.4-4.2-17-8.8-24.9c6.8,10.1,11.8,21.5,14.3,33.5
		c2.5,12,2.7,24.4,0.3,36.3c-1.1-4.6-2-10.5-4.4-13.1c-0.6,0.1-1,1.9-1.4,3.2c-0.4,1.3-0.7,2-0.9-0.1c-1.2-7.7-1.9-14.1-3.2-19.2
		c-1.3-5.2-3.3-9.1-7.1-10.9c-1-0.3-1.8,3.8-3,7.2c-1.2,3.4-2.6,6-3.6,3.9c-1.2-3.7-3.4-10.3-6.7-16.8c-0.7-2-1.6-4-2.6-6
		c0-0.3-0.6-0.5-1.2-0.9c-4.1-6.7-9-12.3-11.6-15.4c-1-1.2-2-2.3-3-3.4c-0.4-0.8-0.6-1.6-0.6-2.4c-1-0.3-2-0.6-2.9-1
		c-3-2.7-6.3-5.1-9.7-7.1c-1.7-1.5-3.5-3-5.4-4.3c-0.1,0.4,0,1-0.5,1.2c-4.5-2.1-9.3-3.6-14.2-4.5c-1-0.4-1.9-0.9-2.7-1.4
		c-0.4-0.2-0.9-0.5-1.2-0.8c-0.2-0.1-0.3-0.3-0.6-0.4c-0.3-0.2-0.5-0.3-0.8-0.5l-0.2,0.1l0,0c0,0,0.2,0,0.1,0l0,0l0,0l0,0l-0.1,0
		l-0.3,0.1c-0.2,0.1-0.4,0.2-0.6,0.2c-0.4,0.2-0.8,0.3-1.3,0.4c-0.9,0.2-1.9,0.4-2.9,0.5c-2.1,0.3-4.4,0.4-6.8,0.6
		c-4.8,0.4-10.1,1.1-14.2,2.7l0.1,0.1c-4.2,1.3-8.3,3-12.3,5c-0.8,0.1-1.6,0.1-2.5,0c-0.7,1.1-1.7,1.7-2,2.3
		c-3.3,1.6-6.2,2.8-9.1,4.3c-0.2,0.6-0.3,2.2-1.2,3c-1.9,1.5-3.5,3.2-4.9,5c-1.9,1.9-3.7,3.9-5.5,6c-6,7.1-10.9,15.2-14.4,23.9
		c-0.5,0.2-1.1,0.1-1.7,0c0.3,1.6-0.8,3.5-0.7,4.9c-0.1-0.3-0.3-0.5-0.6-0.5c0,2.2-0.4,3.5-0.9,4.7c-0.5,1.2-1.1,2.3-1.6,4.3
		c-0.1,0.9,0.4,1.8,0.5,2.6c-0.1,0.4-0.2,1-0.3,1.4l0,0l0,0l0,0c0,0.1,0-0.1,0-0.1l0,0l0,0.1l-0.1,0.1l-0.1,0.2l-0.2,0.4
		c-0.2,0.3-0.3,0.5-0.4,0.8c-0.3,0.6-0.5,1.1-0.6,1.7c-0.3,1.1-0.5,2.3-0.5,3.5c-0.1,2.4,0.2,4.8,0.3,7.3c-0.2,5.1,0,10.3,0.7,15.5
		C33.9,142.3,32.9,144.3,32.9,147.4"/>
	<path class="st0" d="M100.5,37.9c-4.3,0.1-8.7,0.7-13,1.6c2.2-0.8,4.3-1.6,6.4-2.1C96.1,37.1,98.3,37,100.5,37.9"/>
	<path class="st0" d="M180.4,103.8c-0.8,1.8-1.4,3.7-1.7,5.7c-0.5-10.4-3.4-20.6-8.2-30l0.1-0.1c2.2,3.6,3.9,8.6,5.2,13.1
		C177.2,97.2,178.3,101.4,180.4,103.8"/>
	<path class="st0" d="M112.2,38c-0.2,0.1-0.4,0.3-0.6,0.4c0,0,0,0,0,0C111.7,38.3,111.9,38.1,112.2,38"/>
	<path class="st0" d="M202.3,126.9c-0.1,0.4-0.1,0.9-0.2,1.3c0.2-3.4,0.2-6.7,0.2-10.1C202.6,120.8,202.5,123.8,202.3,126.9"/>
	<path class="st0" d="M190.4,160.6c-3,6.1-6.6,11.9-10.9,17.2c-6,6.4-12.9,11.7-20.4,14.9C171.7,184.8,182.6,173.8,190.4,160.6"/>
	<path class="st0" d="M179.3,124.3c-0.7,2.1-1.7,4.2-2.6,6.1c0.5-2.1,1-4.2,1.3-6.3C178.3,124.6,178.9,124.3,179.3,124.3"/>
	<path class="st0" d="M200.4,99c0.1,0.7,0.2,1.3,0.3,2c-0.6-1.7-1.3-3.3-2-4.9C199.1,96.7,199.8,98,200.4,99"/>
	<path class="st0" d="M170.5,145.5c0.8-1.3,1.5-2.7,2.1-4.1c-0.1,0.9-0.2,1.9-0.1,2.9C171.8,144.6,171.2,145,170.5,145.5"/>
	<path class="st0" d="M157.2,165.3c-1.5,1.5-3,2.8-4.6,4c1.7-1.7,3.4-3.5,5-5.3C157.5,164.6,157.5,165.2,157.2,165.3"/>
	<path class="st0" d="M146.2,220.8c-8.8,3.6-18.3,5.7-27.7,6.4c-9.4,0.7-18.7,0-27.3-1.6c6.9,1.3,13.9,1.8,20.9,1.7
		c-5.2,0.1-10.1-0.3-14.9-1.2c-4.8-0.9-9.5-2.2-14.4-4.2c1.7-0.1,4.1,0.5,6.4,0.9c2.3,0.4,4.4,0.6,5.3,0c12.2,2.1,24.9,2.4,37.3,0.7
		c12.4-1.8,24.6-5.6,35.6-11.5c-3.3,4.1-7.2,5.8-10.8,6.6C152.9,219.5,149.4,219.6,146.2,220.8"/>
	<path class="st0" d="M58.3,209c2.1,1.3,4.3,2.5,6.4,3.6C62.3,211.5,60.1,210.4,58.3,209"/>
	<path class="st0" d="M199.8,89.5c-0.9-2.4-1.8-4.7-2.6-6.9C198.3,84.8,199.1,87.1,199.8,89.5"/>
	<path class="st0" d="M170.1,198.2c0.9-1.1,1.9-2.1,2.9-3.2c8.4-6.5,15.9-14.6,22.1-23.8c-3.3,5-6.7,10.2-10.8,15
		C180.2,191,175.4,195.3,170.1,198.2"/>
	<path class="st0" d="M158.8,201.9c-9,5.5-19.5,8.8-29.5,9.2C139.2,210.4,149.5,207.2,158.8,201.9"/>
	<path class="st0" d="M145.2,46.9c-0.1,0.3-0.4,0.4-0.7,0.5c-0.2,0-0.5,0-0.7,0c-2.7-1.9-5.5-3.6-8.4-5.1c0.8,0.1,1.7-0.1,2.5,0.2
		c1.6,0.9,2.4,1.8,3.3,2.5C142.2,45.7,143.2,46.3,145.2,46.9"/>
	<path class="st0" d="M200.6,92.2c0.1,0.1,0.1,0.1,0.2,0.2c0.3,0.8,0.5,1.6,0.8,2.4c0,0.1,0,0.2,0,0.3
		C201.2,94.2,200.9,93.2,200.6,92.2"/>
	<path class="st0" d="M148.8,49.1L148.8,49.1l-0.1,0.1l0,0l0,0l0,0l-0.1-0.1l0,0l0,0l-0.1,0.2c-0.1,0.1-0.1,0.3-0.1,0.4
		c-0.1,0.3-0.1,0.5-0.1,0.8c-1.4-1.1-2.9-2.2-4.4-3.3c0.3,0,0.5,0,0.7-0.1C145.8,47.6,147.2,49,148.8,49.1"/>
	<path class="st0" d="M172.7,82.5c0.5,1,2,1.5,2.5,1.8c0.5,3.1,0.9,6.1,1.4,9.6c0.4,0.4,0.8,1.5,1.6,2.4c-0.3,0.7-0.5,1.5-0.7,2.3
		c-1.6-7.5-4.3-14.9-8-22C170.7,78.4,171.8,80.4,172.7,82.5"/>
	<path class="st0" d="M27.7,108.5c0.1-6.2,1.8-12.8,4-19.1c2.2-6.3,4.7-12.3,6.3-18.4c-2.1,2.9-4.2,6.3-6.1,9.9
		c-1.8,3.5-3.5,7.2-4.9,10.5c-2.8,6.7-4.9,12.3-7.5,13.1c-2.6,0.9-2.3-4.6-0.2-11.6c1-3.5,2.5-7.3,4.1-10.9c1.6-3.6,3.3-7,4.5-9.8
		c-1.2,1.2-1.2,1.2-2.3,2.5c1.1-1.3,2.3-2.5,2.4-4.1c-1.2,1.2-2.7,3.2-4.1,5c-1.4,1.8-2.8,3.6-3.8,4.2l0-1.6c0-0.8,0-1.6,0-1.6
		c-3.4,3.3-6.5,9.1-9,15.2c-1.3,3-2.4,6.2-3.4,9.1c-0.5,1.5-1.1,2.9-1.6,4.2c-0.3,0.7-0.5,1.4-0.8,2c-0.3,0.6-0.5,1.1-0.8,1.6
		l0.3-0.9l0.2-0.5l0.2-0.6l0.4-1.1l0.4-1.1c0.5-1.4,1-2.8,1.5-4.2c1-2.8,2.1-5.6,3.2-8.5c2.3-5.7,4.8-11.3,7.7-16.9
		C24.2,64,31.4,53,40.6,43.2c9.1-9.8,20.2-18.2,32.6-24.1c12.4-5.9,26.1-9.2,39.4-9.4c14.9-0.8,29.8,1.2,43.6,5.7
		c13.9,4.5,26.9,11.4,38.3,20.3c2.1,1.8,5.1,5.2,8,9.4c2.9,4.1,5.7,8.9,7.7,13.1c8.5,13.9,14.1,29.5,17.7,45.6
		c2.9,17.3,0.9,35.2-5,51.9c-2.9,8.4-6.8,16.5-11.5,24.1c-4.8,7.8-10.4,15.2-16.9,22.2c-2.6,2.8-6.8,5-8.6,4.7
		c-0.9-0.1-1.2-0.8-0.6-2.3c0.7-1.5,2.3-3.7,5.1-7.2c9-11.8,16.1-24.5,21.4-37.9c0.4,1.1-0.3,3.1-1.1,5.3c-0.9,2.2-1.9,4.5-2.2,6.2
		c2.9-4.6,5.2-9,7.1-13.6c1.9-4.6,3.3-9.3,4.4-14.6c-1.4,7-3.5,13.9-6.2,20.5c3.4-8.3,6.1-17.4,7.5-26.9c1.5-9.5,1.8-19.4,0.6-29
		c-0.3-3.5,0.5-7,0.6-10.8c0.2-3.8-0.3-8.1-3.4-12.5c2.6,12.5,3.1,25.5,1.8,38.2c-1.3,12.7-4.5,25.2-9.2,37.1c0-0.1,0-0.1-0.1-0.2
		c-2,5.3-4.4,10.2-7,14.8c-2.7,4.7-5.7,9.1-9.1,13.5c2-2.8,3.7-5.9,5.6-8.2c-9.9,12.7-21.4,23.6-34.9,31.7
		c8.7-6.9,16.7-14.9,23.5-23.8c6.9-8.9,12.5-18.7,16.8-29.1c4.2-10.4,6.9-21.5,7.8-32.6c0.9-11.1,0-22.2-2.8-32.5
		c0,6.1,1.2,12.9,1.6,19.6c0.4,6.7,0.1,13.4-2.2,18.3c2.5-19,0.5-38.8-6.6-57.5c0.7,1.3,1.5,2.6,2.2,3.8c-1.3-6.2-4.1-12.1-7.5-17.7
		C196,54,192,48.9,188,44c-0.7-0.9-1.4-1.8-2.1-2.6c0.7,0.9,1.4,1.7,2.1,2.6c7.2,9.1,12.7,19.1,16.6,29.4c-2.5-4.4-4.9-9.2-8-14.8
		c0.9,3.5,2.9,8,4.5,12.7c2.6,5.9,4.7,12,6.1,18.2c-2.6-9.5-7-18.3-12.4-25.2c5.6,11.8,9.8,24.6,11,37.5c-1.2-7-3.1-13.8-5.6-20.4
		c-3.5-11.3-9.1-22.2-16.7-31.7l1,1c-0.6-0.7-1.2-1.4-1.8-2.1c-3.1-3.7-6.4-7.2-10.1-10.3c-3.4-2.8-7.2-4.8-11.2-6.4
		c-0.6-0.4-1.2-0.7-1.8-1.1c0.2,0,0.3,0.1,0.5,0.1l0.1,0c0,0,0,0,0.1,0l0.1,0c0.1,0,0.1,0,0.2,0c0.2,0,0.4,0,0.5-0.1
		c0.1-0.1,0-0.2-0.2-0.5c-0.2-0.3-0.5-0.5-1.1-0.9c-4.4-3.5-9.8-5.9-15.6-7.9c-5.8-1.9-11.8-3.4-18-5.4c-3.3-1-8-1.3-12.9-0.9
		c-1.3-0.4-2.1-0.1-2.7,0.2c-1.1,0.1-2.1,0.2-3.2,0.4c-2.6,0.2-5.2,0.5-7.7,1.2c2.5-0.4,5.1-0.8,7.7-1.2c1-0.1,2-0.1,2.9-0.2
		c-0.7,0.4-1.3,0.9-2.8,1.1c8.9-0.3,18,0.8,26.8,3.2c8.8,2.4,17.3,6.1,25.2,10.8c-1.1-0.2-2.7-0.7-3.4-0.8c0.9,0.3,1.7,0.6,2.6,0.9
		l1.3,0.5c0.4,0.2,0.8,0.3,1.3,0.5c5.1,3.2,9.9,6.7,14.4,10.6c-1.5-1-3-1.8-4.5-2.3c12.6,11.1,22.7,25.3,28.9,41.2
		c4.7,15.3,5.7,31.3,3.4,46.6c2.4-8.1,3.1-17.2,2.2-26.2c2,11.9,1.9,24.3-0.7,36.2c-2.5,11.9-7.5,23.3-14.6,33.1
		c0.9-4.6,2.4-10.4,1.4-13.7c-0.5-0.2-1.7,1.4-2.6,2.4c-0.9,1-1.5,1.6-0.8-0.5c2-7.5,4-13.5,4.9-18.8c0.9-5.2,0.7-9.6-2.1-12.8
		c-0.8-0.6-3.2,2.8-5.6,5.3c-2.5,2.6-4.9,4.4-4.9,2c0.4-3.9,1.1-10.7,0.7-18c0.2-2.1,0.2-4.3,0.1-6.6c0.1-0.3-0.3-0.7-0.7-1.3
		c-1-7.9-3.1-15.1-4.1-19.1c-0.4-1.5-0.8-3-1.3-4.4c0-0.9,0.1-1.7,0.4-2.4c-0.8-0.7-1.5-1.4-2.2-2.2c-1.6-3.8-3.5-7.4-5.7-10.8
		c-0.9-2.1-1.8-4.3-2.9-6.3c-0.3,0.3-0.4,0.9-1,0.9c-3.2-3.9-6.8-7.5-10.7-10.6c-0.7-0.8-1.3-1.6-1.8-2.5c-0.5-0.8-1.1-1.8-1.4-2.6
		c-0.2,0-0.5,0-0.7-0.1c-0.1,0-0.2,0-0.4-0.1l-0.2,0l-0.1,0l0,0l0,0c0,0-0.1-0.1,0.1,0.1l0,0l0,0c-0.4-0.1-0.9-0.2-1.3-0.3
		c-0.9-0.2-1.9-0.5-2.9-0.9c-2-0.7-4.1-1.7-6.3-2.7c-4.5-2-9.5-3.8-13.8-4.4l0,0.1c-4.3-0.9-8.6-1.3-13.1-1.3
		c-0.7-0.3-1.4-0.7-2.1-1.2c-1.1,0.6-2.2,0.8-2.8,1.1c-3.6-0.2-6.7-0.4-9.9-0.5c-0.5,0.4-1.2,1.8-2.4,2.1c-2.3,0.5-4.5,1.2-6.5,2.1
		c-2.5,0.8-5,1.7-7.5,2.8c-8.4,3.6-16.2,8.6-23.1,14.8c-0.5-0.1-1-0.4-1.5-0.7c-0.4,1.6-2.2,2.8-2.7,4.1c0-0.3-0.1-0.6-0.3-0.7
		c-1,2-1.8,3-2.7,3.8c-0.9,0.8-2,1.6-3.2,3.1c-0.5,0.8-0.4,1.8-0.7,2.6c-0.2,0.3-0.6,0.9-0.8,1.1c-2.2,1.3-3.6,3.2-4.7,5.3
		c-1.1,2.1-1.8,4.4-2.7,6.7c-2.3,4.5-4.3,9.3-5.9,14.3C30.8,104.3,29,105.7,27.7,108.5"/>
	<path class="st0" d="M134.3,41.8c-3.9-1.9-7.9-3.5-12.1-4.7c2.3,0.4,4.5,0.6,6.6,1.2C130.9,38.9,132.8,39.9,134.3,41.8"/>
	<path class="st0" d="M178.5,137.7c-1.5,1.3-2.7,2.8-3.9,4.5c3.7-9.6,5.3-20.1,4.7-30.7l0.1,0c0.5,4.2,0,9.5-0.6,14.2
		C178.2,130.4,177.5,134.6,178.5,137.7"/>
	<path class="st0" d="M144.6,47.4c-0.2,0-0.5,0.1-0.7,0.1c0,0,0,0,0,0C144.1,47.3,144.3,47.3,144.6,47.4"/>
	<path class="st0" d="M189,167.5c-0.2,0.4-0.5,0.7-0.7,1.1c1.5-3,3-6,4.3-9.1C191.8,162.2,190.5,164.9,189,167.5"/>
	<path class="st0" d="M164.2,193c-5.3,4.2-11.1,7.8-17.2,10.7c-8.2,3.1-16.7,4.6-24.8,4.2C136.9,206.5,151.5,201.6,164.2,193"/>
	<path class="st0" d="M169.1,155.7c-1.5,1.6-3.2,3-4.9,4.4c1.3-1.6,2.6-3.3,3.8-5.1C168.1,155.6,168.8,155.6,169.1,155.7"/>
	<path class="st0" d="M198.6,141.4c-0.2,0.7-0.3,1.3-0.5,2c0.1-1.8,0.2-3.5,0.2-5.3C198.5,138.8,198.5,140.3,198.6,141.4"/>
	<path class="st0" d="M152.7,170.9c1.2-0.9,2.4-1.8,3.6-2.7c-0.5,0.8-0.9,1.6-1.3,2.6C154.2,170.6,153.4,170.7,152.7,170.9"/>
	<path class="st0" d="M132.6,182.5c-1.9,0.6-3.9,1.1-5.8,1.4c2.2-0.7,4.5-1.5,6.7-2.4C133.2,182,132.9,182.5,132.6,182.5"/>
	<path class="st0" d="M14.8,101.6c0,0-10.4,51.4,11.7,81c16.6,22.3,36.4,1.8,28.2-7.5c-24.8-28-23.4-38.7-23.4-38.7"/>
	<path class="st1" d="M30.1,174.3c0.7,0,1.3,0.3,1.6,0.7c0.3,0.4,0.2,0.9-0.6,1.4c1.6-1.1,1.6-1,3.3-1c-0.5,0.4-0.6,0.7-0.5,1
		c0.1,0.1,0.2,0.3,0.3,0.4l0,0c-0.1-0.1,0.2,0.3-0.2-0.2l0,0l0,0l0,0l0,0l0,0l0,0l0.1,0.1c0.1,0.1,0.1,0.1,0.2,0.2
		c0.1-0.3,0.1-0.5,0.1-0.7v0c0-0.1,0.4,0.5,0.2,0.3v0v0l0,0v0l0,0l0,0l0-0.1l0-0.2c0-0.1,0-0.2,0-0.3c-0.1-0.4-0.2-0.9-0.5-1.5
		c-1.5,0.3-1.7-0.7-1.9-1.7c-0.2-0.9-0.4-1.9-2-1.7c-0.1,0.5-0.5,1.2-0.7,1.9C29.5,173.4,29.5,174,30.1,174.3"/>
	<path class="st1" d="M26.7,184.2l0.7-0.3c0,0-0.6-0.3-1.3-0.6l-0.2-0.1c0,0-0.1,0-0.1-0.1l-0.1-0.1c-0.1-0.1-0.3-0.2-0.4-0.2
		c-0.2-0.1-0.4-0.2-0.4-0.2c0.2,0,0.5,0.1,0.7,0.2c0.1,0.1,0.2,0.1,0.4,0.2c0.1,0.1,0.2,0.1,0.4,0.2C26.8,183.5,27,183.9,26.7,184.2
		"/>
	<path class="st0" d="M33.9,188.3c-1,1-0.4,2.4-1,3.5c0.7-1.2,1.2-1,1.8-0.6c0.3,0.2,0.5,0.6,0.8,0.8c0.3,0.3,0.6,0.5,0.9,0.5
		c0,0,0.3-0.5,0.6-0.9c0.3-0.5,0.6-0.9,0.6-0.9c-0.2-1-0.9-1.4-1.7-2c-0.4-0.2-0.9-0.5-1.4-0.8c-0.2-0.1-0.5-0.3-0.7-0.5
		c-0.2-0.2-0.4-0.4-0.6-0.5c0,0,0.2,0.4,0.3,0.7C33.7,188,33.9,188.3,33.9,188.3"/>
	<path class="st1" d="M34.8,190.8l0.7-0.4c0.3-0.2,0.6-0.4,0.6-0.4C35.5,190,34.1,189.5,34.8,190.8"/>
	<path class="st1" d="M37.7,183.6c-0.4-0.4-0.4-0.1-0.5,0.2c0,0.4-0.1,0.8-0.8,0.6C37.1,184.4,37.5,184.6,37.7,183.6"/>
	<path class="st0" d="M41.1,189.6c0,0-0.2,0-0.5,0.1c-0.3,0-0.7,0.1-1.2,0.1c-0.4,0-0.9,0-1.2,0c-0.3,0-0.6-0.1-0.6-0.1
		s0.1,0.1,0.2,0.2c0.1,0.1,0.2,0.3,0.4,0.5c0.3,0.3,0.6,0.7,0.6,0.7s0.7-0.3,1.2-0.7c0.3-0.2,0.6-0.4,0.8-0.5
		C41,189.7,41.1,189.6,41.1,189.6"/>
	<path class="st0" d="M40.7,194.2c-0.6-0.1-1.2-1.1-0.4-1.6c0.6,1,1.2,0.8,1.8,0.7c0.6-0.2,1.1-0.4,1.8,0.2c0,0-0.3,0.2-0.6,0.4
		c-0.3,0.2-0.7,0.4-0.7,0.4c0.1,0.9,0.9,0.5,1.5,0.1c0.7-0.3,1.3-0.5,1.5,1c0.8-1.3,0.2-1.9-0.1-2.4c-0.4-0.5-0.6-1,0.2-2
		c-0.8,0.5-1.7,0.6-2.5,0.4c-0.4-0.1-0.8-0.2-1.1-0.3c-0.3-0.2-0.7-0.4-1.1-0.5c0.3,0.7,0.5,0.6,1.2,1.2c-0.6,0-1.3,0.2-2,0.4
		c-0.4,0.1-0.8,0.1-1.2,0.2c-0.4,0-0.8,0-1.1-0.1c0,1.1,0.5,1.3,1.1,1.4C39.5,193.6,40.1,193.6,40.7,194.2"/>
	<path class="st0" d="M47.6,194.1c1.5-0.2,3.7-1.4,2.7-3.6c-1-0.3-1.3-0.2-1.4,0.4c-0.1,0.5,0,1.3-0.1,1.9c-0.3-0.1-0.8-0.1-1.2-0.2
		c-0.4-0.1-0.7-0.4-0.6-1.1C47.4,191.8,46.8,193.4,47.6,194.1"/>
	<path class="st0" d="M53.1,191.6c0,0-0.1-0.6-0.2-1.2c-0.1-0.6-0.3-1.2-0.3-1.2s-0.1,0.2-0.1,0.4c-0.1,0.2-0.1,0.3-0.1,0.3l-1-1.2
		c0.1,0.2,0.5,0.9,0.7,1.7c0.2,0.8,0.2,1.6-0.5,2C52.7,193,52.2,191.7,53.1,191.6"/>
	<path class="st0" d="M46.7,183.1c1,0.6,0.8-0.1,0.6-0.9c-0.2,0.6-1,1.1-0.7,2l-0.2-0.3c0,0,0,0.4,0.1,0.9c0,0.6,0.1,1.4,0.1,2.1
		c0-0.5,0.2-0.7,0.4-0.9c0.2-0.2,0.4-0.3,0.6-0.5C48,185,48,184.5,46.7,183.1"/>
	<path class="st0" d="M45.9,183.4c0,0-0.3-1.3-0.4-1.3C45.6,182.2,45.9,183.4,45.9,183.4"/>
	<path class="st0" d="M56,187.9c0,0-0.5,0.4-1,0.7c-0.5,0.3-1,0.6-1,0.6l0.9,0c0,0,0.3-0.3,0.6-0.6L56,187.9z"/>
	<path class="st0" d="M49.7,185.3c0.5-0.3,0.1-0.5-0.3-0.7c-0.4-0.2-0.9-0.5-0.6-0.8c0-0.3-0.8,0.9-0.3,1.8c0.2,0.1,0.3-0.3,0.3-0.6
		C48.8,184.8,49,184.7,49.7,185.3"/>
	<path class="st0" d="M57,186.7c0,0,0-0.1-0.1-0.4c-0.1-0.2-0.1-0.5-0.2-0.8c-0.1-0.6-0.4-1.2-0.4-1.2s0.2,0.6,0.4,1.2
		c0.1,0.3,0.1,0.6,0.2,0.8C57,186.6,57,186.7,57,186.7"/>
	<path class="st0" d="M59.7,182.2l-0.5-0.3l-0.5-0.3c0.3-0.4,0.4-1,0.4-1.6c0-0.6-0.1-1.2-0.2-1.8c-0.1-0.6-0.2-1.1-0.2-1.7
		c0-0.6,0.2-1.2,0.5-1.9c-0.5,0.5-1.3,0.6-1.9,0.9c-0.6,0.3-0.9,0.6-0.8,1.4c0.8-0.1,1,0.5,1.8,0.2c-0.1,0.8-1.1,0.9-1.4,1.4
		c0.4,0.2,0.6,0.5,0.7,0.9c0.1,0.3,0.2,0.7,0.2,1.1c0.1,0.7,0,1.4,0.4,2c-0.2-0.5,0.1-0.6,0.3-0.9c0.8,1.3-0.1,1.8-0.7,2
		c-0.7,0.3-1.1,0.3,0.2,1.4c-0.3-0.6,0.2-0.9,0.7-1.3C59.3,183.4,59.9,182.8,59.7,182.2"/>
	<path class="st0" d="M52,181c0,0-0.1,0.2-0.3,0.3c-0.2,0.2-0.3,0.3-0.3,0.3c-0.7-0.4-0.7-0.5-0.6-0.7c0-0.2,0.1-0.3-0.6-0.4
		c-0.9-0.1-1.4,0.1-2-0.1c1.8,0.4,1.7,0.6,1.8,0.8c0.1,0.2,0.1,0.4,2.1,0.8c0,1.3-2.2-0.5-2.4,0.4c0,0,0.4,0.3,0.7,0.6
		c0.4,0.3,0.7,0.7,0.7,0.7c0-0.4,0.1-0.7,0.2-0.9c0.1-0.2,0.3-0.3,0.4-0.5C52,182.1,52.3,181.7,52,181"/>
	<path class="st0" d="M52.2,178.4c0,0,0.9-0.9,0.8-0.9c0,0-0.3,0.3-0.7,0.6c-0.3,0.3-0.7,0.5-0.7,0.5c-0.1-0.1-0.2-0.3-0.1-0.5
		l0-0.2l0-0.1l0,0v0c-0.2-0.2,0-0.1-0.1-0.1l0,0l0,0l0,0l0-0.2c0-0.2,0-0.4,0-0.6c0-0.9,0.3-1.8,0.5-2.8c0.5-1.8,1-3.5,0.1-3.9
		c-3.3-0.4-2.1-4.2-3.9-5.9c-1.9,0,0.1,1.4-0.5,2.1c-2.4,1.6,0.4-1.8-1.7-0.8c-1.7,1.2-0.1,3.3-0.4,4.9c0.8,0.5,1.3,0.1,2.4-0.5
		c-0.7,0.9-0.4,1.8-1.2,2.8c2.5,0.4,0.7,3.1,3.3,3.4c-0.8,1.4-1.1-0.9-0.9-0.2l0.7,0.8l0.1-0.2c0.5,0,1,0.2,1.3,0.5
		c0.2,0.1,0.3,0.3,0.4,0.5l0,0l0,0l0,0l0.1,0.1l0,0l0,0l0,0.1c0,0.1,0,0.1,0,0.2c0,0.5-0.4,1.1-0.9,1.4c0.5-0.3,1.5-1.2,2.1-1
		c0,0-0.4,0.3-0.8,0.5c-0.4,0.2-0.8,0.4-0.8,0.4s0.2,0,0.4,0c0.2,0,0.6,0,0.9,0.1c0.4,0,0.7,0.1,1,0.2c0.3,0.1,0.4,0.1,0.4,0.1
		c-0.5-0.2-0.6-0.4-0.6-0.6c0-0.2,0.1-0.5,0.2-0.7c0-0.2,0.1-0.4-0.1-0.5C53.3,178,52.9,178.1,52.2,178.4"/>
	<path class="st0" d="M49.3,180c-0.4,0.1,0.2,0.1,0.9,0c0.7-0.1,1.4-0.2,1,0.3c0,0,0-0.1,0-0.1c0-0.1-0.1-0.2-0.1-0.3
		c-0.1-0.2-0.2-0.3-0.1-0.3c0,0-0.4,0.1-0.8,0.3C49.7,179.9,49.3,180,49.3,180"/>
	<path class="st1" d="M48.5,172l0.3-1.6C47.2,172.4,50.9,171.5,48.5,172"/>
	<polygon class="st1" points="46,169 48.2,168 46.5,168.1 	"/>
	<path class="st0" d="M46,164.5c-1.4,0.1-1.6,1.5-0.8,2.1C44.8,165.8,45.3,164.8,46,164.5"/>
	<path class="st1" d="M46.3,157.2c1,1.3-0.4-1.5,2-1.8C47.3,155.8,45.7,155.9,46.3,157.2"/>
	<path class="st0" d="M47.8,149.7c0.7,0.2,0.5,0.7,0,1C47.7,150.4,47.6,150,47.8,149.7"/>
	<path class="st0" d="M54.9,170.8c0.1,0.1,0.3,0.3,0.3,0.5C55.1,171.1,55,171,54.9,170.8"/>
	<path class="st0" d="M54.7,170.5l0.2,0.3C54.8,170.7,54.7,170.6,54.7,170.5"/>
	<path class="st0" d="M50.5,157.3C50.5,157.3,50.5,157.3,50.5,157.3c0,0.1,0,0.1-0.1,0.2L50.5,157.3z"/>
	<path class="st0" d="M29.5,188.8c-0.3-0.2-0.6-0.3-0.7-0.5C29.1,188.5,29.3,188.7,29.5,188.8C29.6,188.8,29.6,188.8,29.5,188.8"/>
	<path class="st0" d="M31.1,185.8c1-0.1,0.7,0.8,0.4,1.9c-0.2,1-0.3,2.2,1,2.5c-0.5-0.1-1-0.4-1.5-0.6c-0.5-0.2-1-0.5-1.5-0.8
		c0.3-1.4,0.7-1.4,1-1.5C30.9,187.3,31.1,187.2,31.1,185.8"/>
	<path class="st0" d="M46.4,187.8C46.4,187.7,46.5,187.7,46.4,187.8C46.5,187.6,46.5,187.6,46.4,187.8"/>
	<polygon class="st1" points="11.3,127.1 10.6,127.1 11.5,125.8 	"/>
	<path class="st1" d="M10.1,127.3l-1.2,2.2c0,0-0.1-3.3-0.1-6.7c0-3.3,0.2-6.7,0.2-6.7l0.9,0.5c0.6,0,0.3,2.7,0.1,5.4
		C9.7,124.8,9.6,127.5,10.1,127.3"/>
	<path class="st1" d="M11.1,128c2.7,1.3-1,2.1,0.9,3.7c-1.3-1-2.7-1.8-2-2.8L11.1,128z"/>
	<path class="st2" d="M16.3,132.2c-0.5,0.7,0.6,1.5,0.2,1.9C14.4,133.9,16,132.8,16.3,132.2z"/>
	<path class="st0" d="M24.1,133.8c0,0.1,0,0.2,0,0.3c-0.1-0.1-0.3-0.2-0.4-0.3L24.1,133.8z"/>
	<path class="st0" d="M23.7,133.8l-0.9,0C23.2,133.6,23.4,133.7,23.7,133.8"/>
	<path class="st0" d="M24.1,134.1c0.3,0.3,0.6,0.6,1,0.7l0.1-0.3c0.3,0.4,1,1,0.5,1.2c0.1-0.7-0.5-0.7-1.8-0.7l-0.1,1.2
		C20.8,136.2,24,135.2,24.1,134.1"/>
	<path class="st2" d="M25,137.9l-1.8-1.1C24.9,136.3,25,137.4,25,137.9z"/>
	<path class="st0" d="M23.2,139.8c-0.5-0.2-0.4-1.5-1.2-0.7c-0.4-0.2-0.3-0.4-0.3-0.7C22.2,139.3,24.2,138.3,23.2,139.8"/>
	<path class="st0" d="M21.7,138.5c-0.1-0.1-0.1-0.2-0.1-0.3C21.7,138.2,21.7,138.3,21.7,138.5"/>
	<path class="st2" d="M13.8,125c-0.2,0.2-0.5,0.1-0.7,0.1L13.8,125z"/>
	<path class="st0" d="M21.5,142.5l0,0.5c0-0.1-0.1-0.3-0.1-0.4L21.5,142.5z"/>
	<path class="st0" d="M7.2,100.1c-0.5,1-0.9,1.8-1.1,2.8c-0.2,1-0.3,2.1,0.1,3.5c2.2,0.2,0.5,1.1,2.7,1.6c0-1.4,0,1.2,0.2,3.9
		c0.2,2.7,0.7,5.4,1.3,4.3l-1-0.7l2.2,0.8c-0.7,1.2-2.6,2.9-1.4,3.8c-0.4,0.1-0.3-2.6,0-5.3c0.2-2.7,0.5-5.4,0.2-5.2
		c1.4-0.3,1.6,3.4,1.7,7.3c0.1,3.9,0.3,7.9,0.9,8.1l-1.4,0.1c1.4,2,3.4,3.3,4.4,4.8l-1.7,0.4c0.6-1.2-0.6-1.5-1.3-2.7
		c0.3,2.1-0.7,2.5-0.4,4.1c2.2-0.1,1-1.4,2.3,0.6c-0.9,0.6-3.3-0.7-2.8,1.1c-0.5,2.2,2.7,1.7,3,3.5l0.8-1.3c0.1,0.7,0.7,1.9-0.5,2.7
		c0.1-0.8-1.2-2.7-3.4-2.6c0.5,0.8-0.2,2.6,0,3.4l-1.6-0.3c-1.4,0.9,0.8,1.2-0.4,2.3c1,0.9,2.2-0.7,2.8-0.3
		c-0.5,0.2-1.2,2.1-0.1,2.6c3.2-0.7-1.2-2.1,1.9-3.4c0,0-0.1,0.4-0.2,0.9c-0.1,0.4-0.2,0.9-0.2,0.9c3.3,0.8-0.3-2.7,2.3-2.3
		c1.7,0.5,1,1.2,0.3,1.9c-0.6,0.7-1.1,1.4,1,1.7c0.7-0.8,0.6-3.2,1.8-3c-1.1,0.9,1.2,1.4,1.7,2.4c0,0-0.3,0.4-0.7,0.8
		c-0.3,0.4-0.7,0.8-0.7,0.8c1.1,0.5,1,0,1.6-0.5c-0.8,1.1-0.6,2.5-0.3,3.9c0.2,1.5,0.5,3-0.4,4.6c0.8,1.6,1.4-0.1,2.7,0.5
		c-1.7,1.3,0.2,2.4,0.4,3.3c-0.1,0.3,1.9,0.3,2.6-0.1c0,0-0.4-0.5-0.9-0.9l-0.8-1c1-0.1,2.6-0.8,2.2-1.5c-1.8,0.7-1.4-0.2-1-1.2
		c0.3-1,0.6-2-1.5-1.7l1.9-0.3c0,0-0.5-0.6-0.9-1.3l-0.9-1.3l-0.2,0.1c0.6-0.1-1.6-2.3-1-4.1c0.7,0.4,0.3,3.2,2.2,1.4
		c1.2,1-0.2,3.4,1,5.4l1.2-0.6c1.1,0.9,1.2,2.2,1.1,3.5c0,0.7-0.1,1.4-0.1,2c0,0.6,0.1,1.3,0.4,1.8l-1.9-0.3c-0.4,1-1.6,2.5,0.1,2.9
		c-0.4-1,0.7-0.7,1.5-0.8c0.7,0.5,0.9,1.3,1.1,2.2c0.2,0.9,0.5,1.8,1.1,2.6c0,0-0.4,0.1-0.6,0.2l1.7,1.4c0,0.9-0.8,1.6-1.6,2.6
		c0.4,0.2,0.7,1,1.5,0.2c0-0.2,0-0.4-0.1-0.5c2.2,0-0.3,0.9,1.3,1.4c-1.9-0.1-2,1.3-3.5,2c1.3,0.9,2.7-1.2,3.5-1.4
		c0,0.9-0.3,1.7-0.6,2.3c-0.2,0.7-0.3,1.3,0,2.1c0.9-0.5,0-1.4,0.9-2.1c0,0.5,0.4,1,0.8,0.8l0.2-1.3c-0.1,1,0,2,0.4,2.8
		c0.2,0.4,0.4,0.7,0.7,1.1c0.2,0.2,0.3,0.3,0.5,0.5l0.3,0.2l0,0l0,0c0.1,0.1-0.5-0.6-0.3-0.3l0,0l0,0l0,0l0,0l0.1,0.1l0.2,0.1
		l0.3-0.5l0.9,1.2l-1.8,0.8c0.4,0.2,0.5,0.7,0.6,1.1c0.1,0.2,0.1,0.3,0.2,0.3c0.1,0,0.3-0.1,0.6-0.3l0-0.2l0.8-0.1
		c0,0-0.4,0.2-0.9,0.5l-0.9,0.4c0,0.5,0.8,0.3,1.7,0c1-0.3,1.9-0.5,2.2-0.2c-0.7,1.1-1.2,1-1.9,0.8c-0.3-0.1-0.7-0.2-1.1-0.1
		c-0.4,0.1-0.9,0.3-1.5,0.9c-0.2,0.7,0.2,1.7,1,1.2c0.6-0.7,0.3-1,0.1-1.2c0.5-0.1,0.9,0,1.1,0.2c0.3,0.2,0.5,0.4,0.7,0.7
		c0.2,0.3,0.4,0.4,0.7,0.4c0.3,0,0.7-0.2,1.1-0.8c0,0,0.1-1.3,0.1-1.2c0.2,0,0.2,0.2,0.2,0.5c0,0.3-0.1,0.6-0.1,0.9
		c-0.1,0.6-0.1,1.1,0.4,0.3c0,0-0.5,0.7-1,1.4c-0.5,0.7-1.1,1.3-1.1,1.3c0.8-0.4,1.3-0.6,1.8-0.7c0.2-0.1,0.4-0.2,0.6-0.3
		c0.2-0.1,0.4-0.3,0.5-0.6c0.2-1,0.1-1-0.1-0.8c-0.2,0.1-0.5,0.5-0.4,0.3l0.3-0.6c0.1-0.3,0.3-0.6,0.3-0.6c0.1,0.6,0.1,0.9,0.1,1.2
		c0,0.3,0,0.6,0.4,1.2l0.1-1.3c0.1,1,0.3,0.5,0.4,0.2c0.1-0.3,0.2-0.4,0.3,1.4c0,0-0.1-0.2-0.2-0.4c-0.1-0.2-0.1-0.4-0.1-0.4
		l0.2,1.5c0,0,0.3-0.3,0.5-0.6c0.2-0.3,0.3-0.7,0.3-0.6c0.3,1.1,0.7,0.6,1.1,2.1c0,0,0-0.4,0-0.7c0-0.4-0.1-0.7-0.1-0.7
		c0.6,0.9,0.7,1.6,0.7,2.3c-0.1,0.7-0.3,1.3-0.1,2.1c0.3,1,0.7,0.7,0.8,0.5c-0.2,1-0.8,0.5-1.4-0.1c-0.6-0.7-1-1.5-1.4-1.5
		c0,0-0.1,0.4-0.1,0.7c-0.1,0.4-0.2,0.7-0.2,0.7l-0.1-1.9c-0.3,0.4-0.6,1.6-0.8,2.4c-0.2-0.6-0.4-1-0.7-1.1c-0.2-0.1-0.5,0-0.8,0.1
		c-0.6,0.3-1.5,0.7-2.1,0.1c0.8-0.3,0.7-0.8,0.6-1.3c-0.2-0.5-0.4-0.9-0.2-1.1c-0.3-0.1-1.1,0.3-2,0.5c-0.8,0.1-1.5,0-1.1-1.2
		c0.1-0.5,0.5-0.6,0.8-0.8c0.3-0.2,0.5-0.3,0.2-0.7c-0.6-0.2-1.6,0.3-1.9,1.3c-0.2-0.1-0.4-0.1-0.6-0.2c-0.2-0.1-0.4-0.2-0.5-0.4
		c-0.3-0.3-0.7-0.6-1-0.9c-0.3-0.3-0.6-0.7-0.8-1c-0.1-0.1-0.3-0.4-0.5-0.6c-0.2-0.2-0.3-0.4-0.5-0.7l1.3-0.4c0-0.4-0.2-0.8-0.4-1
		c-0.1-0.1-0.3-0.2-0.4-0.3l-0.1-0.1l0,0l0,0l0,0h0c-0.1-0.2,0.2,0.2,0.1,0.2l0,0l0,0l-0.1,0c-0.1,0-0.2,0-0.2-0.1
		c-0.7-0.2-1.6-0.1-2.4,0c0.3-0.4,0-0.3,0.7-0.6c0.4-1.3-0.4-1.3-1.5-1.4c-1.1-0.1-2.4-0.2-2.9-1.5c-1.5,1-1,2.2,0.2,2.5l-1.9,0.9
		c0.6,1.1,1.4,2.2,2.4,3.1c0.2,0.2,0.5,0.4,0.7,0.6c0.2,0.2,0.5,0.4,0.8,0.5c0.5,0.3,1.1,0.6,1.6,0.8l-1.8,0.2
		c-0.5,1.6,0.2,1.4,0.9,1.2c0.7-0.2,1.3-0.4,0.7,1.3c1.3,0.4,0.2-1.4,1.4-1.3c0.1,1-2.8,2.3-1.7,3.5c-2.5-1.7-4.6-4-6.4-6.5
		c-0.9-1.3-1.7-2.6-2.6-3.9c-0.8-1.4-1.6-2.7-2.2-4c-0.4,0.1-0.4,0.4-0.4,0.8c-1.7-0.3-2.7-5.2-3.2-9.7c-0.6-4.5-0.9-8.7-3.6-8.4
		c0.7-0.5,1.8,0.3,1.4-0.9c-0.4,0-1-0.2-1.7,0.2c1.1-1.9,0.7-3.7,0.3-5.6c-0.5-1.9-1-3.9-0.3-5.9c-0.9,0.2-1.5-0.6-2.1-0.6
		c2-1.5-0.5-3.5,0.7-4.9l-1,0.5c0,0-0.1-1-0.1-1.9l-0.1-1.9c-0.4-0.1-0.4,0.4-0.5,0.7c-0.5-0.8,0.6-1.1,1.5-1.2c0,0-0.6-0.4-1.2-0.8
		l-1.2-0.8c1.8-2.6,1.3-5.4,0.7-8.3c-0.6-2.9-1.3-6.1,0.1-8.9c-1.7-1-2.4-1.8-2.5-3.3l-0.6,0.7c-1.3-1.7,0.9,0,0.3-1.4
		c-1-1-2.7-0.5-1.8,0.8c-0.7,0.7-1.3,0.2-1.6-0.4c0.3-2.4,0.9-4.7,2-6.8C3.7,103.7,5.2,101.9,7.2,100.1"/>
	<path class="st0" d="M46.1,136.9c-0.8,0.4-0.8-0.5-2.5,0.4c-0.2,0.2-0.4,0.3-0.5,0.5c-0.1,0.2-0.2,0.4-0.2,0.6
		c-0.1,0.4-0.1,0.9-0.1,1.3s0.1,0.9,0.2,1.3c0.2,0.5,0.4,1,0.6,1.5c0.5,1,0.9,2,1.2,3c0.4,1,0.7,2.1,0.7,3.4
		c-0.6,1.6-0.5,1.9-0.5,3.2c0.3-0.1,0.6-0.3,0.8-0.6c0.3,0.5,0.7,1.1,1.1,1.7c0.4,0.6,0.8,1.2,0.8,1.9c0.5,0,1.8-0.6,1.1-0.9
		c2,0.6-0.4,3.9,1.1,4c0.2-1.2,1.5-0.2,1.5-1.4c1.2,1.3-2.8,4.3-2.3,5.8c0.3-0.2,0.7-0.4,0.6-0.7c-0.6,2.6,4.2,3.1,1.6,5.5l1.5-0.4
		c-0.4,1.3-1.1,1.7-0.7,2.9c0.9,0.3,1-0.9,1.6-1c-0.9,1.2,1,2.4,0.1,4.4c-1.6,1.4,1.1-3.2-1-2.7c-0.4,0.3-0.4,0.4-0.3,0.6
		c-1.4-2.1-1.6-4.9-1.9-7.4c-0.1-0.6-0.2-1.2-0.3-1.8c-0.1-0.6-0.2-1.1-0.3-1.6c-0.3-1-0.8-1.8-1.7-2.4c0.7-1.6-0.8-1.3-2.3-0.7
		c-0.1,1-0.1,3.6,2.4,1.7l-0.8,2.2c0.4,0.3-2,2.2-2.3,2.7c-0.3-1-3.3,0-3.4,1.8c-0.9-0.9,0.5-1.7,1.9-2.5c1.4-0.8,2.7-1.5,1.8-2.1
		l-1.9,1.1c1.2-0.4,0.9-2.5-0.1-2.6l-0.2,0.5c-0.6-1.3-1.4-2.6-2.3-3.9c-0.8-1.4-1.7-2.8-2.7-4.1c-0.5-0.7-1-1.4-1.5-2.1
		c-0.5-0.7-0.9-1.4-1.4-2.1c-0.9-1.4-1.9-2.8-2.6-4.2c2.3-1.7,1.4-2.5,0.5-3.4c-0.4-0.4-0.9-0.9-1-1.4c-0.1-0.5,0.1-1,1.2-1.4
		c-0.4-0.2-0.9,0-1.3,0.2c-0.5,0.2-0.9,0.4-1.3-0.2c-0.4-0.7,1-0.8,1.4-0.8c-0.2-0.2-0.3-0.3-0.4-0.4c1.3,0.1,2.6,0.2,3.9,0.5
		c0.6,0.2,1.3,0.1,1.9,0c0.6,0,1.2-0.4,1.8-0.3c0.6,0,1.2,0,1.7,0c0.3,0,0.5,0,0.8-0.1c0.3,0,0.5-0.1,0.8,0
		C43.9,136.7,44.9,136.8,46.1,136.9"/>
</g>
</svg>
