<?xml version="1.0" encoding="utf-8"?>
<!-- Generator: Adobe Illustrator 19.2.0, SVG Export Plug-In . SVG Version: 6.00 Build 0)  -->
<svg version="1.1" id="Laag_1" xmlns="http://www.w3.org/2000/svg" xmlns:xlink="http://www.w3.org/1999/xlink" x="0px" y="0px"
	 viewBox="0 0 190 25" style="enable-background:new 0 0 190 25;" xml:space="preserve">
<style type="text/css">
	.st0{fill:#303333;}
</style>
<g>
	<g>
		<path class="st0" d="M175.8,23.4V12.5l11.1,10.8h2v-22h-5.8v10.8L172,1.3h-2v22.1H175.8z M148.9,20.1c0.7,1.2,1.7,2,3,2.6
			c1.2,0.6,2.6,0.9,4.1,0.9c1.1,0,2.2-0.2,3.2-0.5c1-0.3,1.9-0.8,2.7-1.5c0.8-0.6,1.4-1.4,1.9-2.4c0.5-1,0.7-2,0.7-3.2V1.4h-9v5h3.2
			v9.6c0,0.9-0.2,1.5-0.7,2c-0.5,0.4-1.2,0.7-2,0.7c-0.8,0-1.6-0.2-2.1-0.7c-0.6-0.5-0.8-1.1-0.8-1.9v-2.8h-5.3V16
			C147.8,17.6,148.2,18.9,148.9,20.1 M145.5,23.4v-4.9h-2.8V6.3h2.6V1.4h-10.7v4.9h2.6v12.2h-2.8v4.9H145.5z M121.8,6.4v17h5.6v-17
			h5.4v-5h-16.4v5H121.8z M103.1,23.4V12.3c0.5-0.7,1.1-1.2,1.9-1.7c0.8-0.5,1.7-0.7,2.6-0.7c1.1,0,1.9,0.3,2.5,0.8s0.9,1.4,0.9,2.7
			v9.9h2.3V12.7c0-3.3-1.6-4.9-4.8-4.9c-1.1,0-2.1,0.3-3,0.8c-1,0.5-1.8,1.1-2.4,1.8V8.2h-2.3v15.2H103.1z M85.1,13
			c0.2-0.6,0.5-1.1,0.9-1.6c0.4-0.5,0.9-0.9,1.5-1.2c0.6-0.3,1.3-0.5,2.1-0.5c0.8,0,1.6,0.2,2.2,0.5c0.7,0.3,1.2,0.7,1.6,1.2
			c0.4,0.5,0.7,1,0.9,1.6c0.2,0.6,0.3,1.2,0.3,1.7h-10C84.7,14.2,84.8,13.6,85.1,13 M84.4,21.5c1.4,1.5,3.3,2.2,5.5,2.2
			c2.5,0,4.5-0.8,6-2.3l-1.1-1.5c-0.6,0.6-1.3,1.1-2.1,1.4c-0.8,0.3-1.7,0.5-2.6,0.5c-1.6,0-2.9-0.5-3.8-1.5c-1-1-1.5-2.3-1.6-3.7
			H97v-0.6c0-1.5-0.3-2.9-0.9-4.1c-0.6-1.2-1.4-2.2-2.5-2.9c-1.1-0.7-2.4-1.1-3.9-1.1c-1.4,0-2.7,0.4-3.8,1.1
			c-1.1,0.7-2,1.7-2.7,2.9c-0.6,1.2-1,2.5-1,4C82.2,18.1,82.9,20,84.4,21.5 M67.4,6.4c0.3,0,0.7,0,1.2,0c0.5,0,1,0,1.5,0
			c0.5,0,0.9,0,1.3,0c0.5,0,0.8,0.1,1.2,0.4c0.3,0.2,0.6,0.5,0.8,0.9c0.2,0.4,0.3,0.8,0.4,1.2c0,0.2,0.1,0.4,0,0.6
			c0,0.2,0,0.5-0.1,0.7c-0.1,0.4-0.2,0.9-0.4,1.2c-0.2,0.4-0.4,0.7-0.8,0.9c-0.3,0.2-0.7,0.3-1.1,0.3h-4V6.4z M67.4,23.4v-5.6h4
			c1.1,0,2.2-0.2,3.1-0.6c0.9-0.4,1.7-0.9,2.3-1.5c0.6-0.6,1.1-1.4,1.6-2.2c0.4-0.8,0.7-1.7,0.8-2.6c0-0.4,0.1-0.9,0.1-1.3
			s0-0.9-0.1-1.4c-0.1-0.9-0.4-1.8-0.8-2.6c-0.4-0.8-0.9-1.5-1.5-2.2c-0.6-0.6-1.4-1.1-2.3-1.5c-0.9-0.4-2-0.6-3.1-0.6h-9.7v22H67.4
			z M45.4,6.4c0.3,0,0.7,0,1.3,0c0.5,0,1,0,1.5,0c0.4,0,0.9,0,1.3,0c0.4,0,0.8,0.1,1.2,0.3c0.3,0.2,0.6,0.5,0.8,0.8
			c0.2,0.3,0.3,0.7,0.4,1.1c0,0.2,0.1,0.4,0,0.6c0,0.2,0,0.4-0.1,0.6c-0.1,0.4-0.2,0.7-0.4,1.1s-0.4,0.6-0.8,0.8
			c-0.3,0.2-0.7,0.3-1.1,0.3h-4V6.4z M45.4,23.4v-6.4h2.9l3.8,6.4h6.3v-0.8l-4.3-7c0.7-0.5,1.3-1,1.7-1.7c0.5-0.7,0.9-1.4,1.1-2.1
			c0.3-0.7,0.4-1.5,0.4-2.3V9.1c0-0.7-0.1-1.4-0.2-2.1c-0.2-0.8-0.5-1.5-0.9-2.2c-0.4-0.7-1-1.3-1.6-1.8c-0.6-0.5-1.4-0.9-2.3-1.2
			c-0.9-0.3-1.9-0.5-2.9-0.5h-9.7v22H45.4z M35,23.4v-5h-8.4v-3.8H34v-5h-7.4V6.4h8.1v-5H20.9v22H35z M6.5,6.4v17h5.6v-17h5.4v-5
			H1.1v5H6.5z"/>
	</g>
</g>
</svg>
